# MagicaVoxel @ Ephtracy

# group
o 

# material
mtllib car1.mtl
usemtl palette

# normals
vn -1 0 0
vn 1 0 0
vn 0 0 1
vn 0 0 -1
vn 0 -1 0
vn 0 1 0

# texcoords
vt 0.755859 0.5
vt 0.771484 0.5
vt 0.919922 0.5
vt 0.958984 0.5
vt 0.978516 0.5
vt 0.994141 0.5

# verts
v -1.1 1 -0.3
v -1.1 1 -0.4
v -1.1 1 -0.9
v -1.1 1 -1
v -1.1 1.2 -0.3
v -1.1 1.2 -0.4
v -1.1 1.2 -0.9
v -1.1 1.2 -1
v -1.1 1.5 -0.3
v -1.1 1.5 -0.4
v -1.1 1.5 -0.9
v -1.1 1.5 -1
v -1 0.9 -0.3
v -1 0.9 -0.4
v -1 0.9 -0.9
v -1 0.9 -1
v -1 1 -0.3
v -1 1 -0.4
v -1 1 -0.9
v -1 1 -1
v -0.7 1.3 -0.2
v -0.7 1.3 -0.3
v -0.7 1.3 -1
v -0.7 1.3 -1.1
v -0.7 1.5 -0.2
v -0.7 1.5 -0.3
v -0.7 1.5 -1
v -0.7 1.5 -1.1
v -0.6 1.3 -0.3
v -0.6 1.3 -0.4
v -0.6 1.5 -0.3
v -0.6 1.5 -0.4
v -0.6 1.5 -0.9
v -0.6 1.5 -1
v -0.6 1.7 -0.4
v -0.6 1.7 -0.9
v -0.6 1.9 -0.3
v -0.6 1.9 -1
v 0.1 0.9 -0.3
v 0.1 0.9 -0.4
v 0.1 0.9 -0.9
v 0.1 0.9 -1
v 0.1 1 -0.3
v 0.1 1 -0.4
v 0.1 1 -0.9
v 0.1 1 -1
v 0.4 1.5 -0.4
v 0.4 1.5 -0.9
v 0.4 1.6 -0.4
v 0.4 1.6 -0.9
v -0.7 0.9 -0.3
v -0.7 0.9 -0.4
v -0.7 0.9 -0.9
v -0.7 0.9 -1
v -0.7 1 -0.3
v -0.7 1 -0.4
v -0.7 1 -0.9
v -0.7 1 -1
v -0.7 1.3 -0.3
v -0.7 1.3 -0.4
v -0.7 1.5 -0.3
v -0.7 1.5 -0.4
v -0.6 1.3 -0.2
v -0.6 1.3 -0.3
v -0.6 1.3 -1
v -0.6 1.3 -1.1
v -0.6 1.5 -0.2
v -0.6 1.5 -0.3
v -0.6 1.5 -1
v -0.6 1.5 -1.1
v 0.2 1.5 -0.3
v 0.2 1.5 -1
v 0.2 1.9 -0.3
v 0.2 1.9 -1
v 0.4 0.9 -0.3
v 0.4 0.9 -0.4
v 0.4 0.9 -0.9
v 0.4 0.9 -1
v 0.4 1 -0.3
v 0.4 1 -0.4
v 0.4 1 -0.9
v 0.4 1 -1
v 0.5 1 -0.3
v 0.5 1 -1
v 0.5 1.2 -0.3
v 0.5 1.2 -1
v 0.5 1.5 -0.3
v 0.5 1.5 -0.4
v 0.5 1.5 -0.9
v 0.5 1.5 -1
v 0.5 1.6 -0.4
v 0.5 1.6 -0.9
v -0.7 1.3 -0.2
v -0.7 1.5 -0.2
v -0.6 1.3 -0.2
v -0.6 1.5 -0.2
v -1.1 1 -0.3
v -1.1 1.2 -0.3
v -1.1 1.5 -0.3
v -1 0.9 -0.3
v -1 1 -0.3
v -1 1.2 -0.3
v -0.9 1 -0.3
v -0.9 1.1 -0.3
v -0.8 1 -0.3
v -0.8 1.1 -0.3
v -0.7 0.9 -0.3
v -0.7 1 -0.3
v -0.7 1.2 -0.3
v -0.7 1.3 -0.3
v -0.7 1.5 -0.3
v -0.6 1.3 -0.3
v -0.6 1.5 -0.3
v -0.6 1.9 -0.3
v -0.4 1.5 -0.3
v -0.4 1.7 -0.3
v 0 1.5 -0.3
v 0 1.7 -0.3
v 0.1 0.9 -0.3
v 0.1 1 -0.3
v 0.1 1.2 -0.3
v 0.2 1 -0.3
v 0.2 1.1 -0.3
v 0.2 1.5 -0.3
v 0.2 1.9 -0.3
v 0.3 1 -0.3
v 0.3 1.1 -0.3
v 0.4 0.9 -0.3
v 0.4 1 -0.3
v 0.4 1.2 -0.3
v 0.5 1 -0.3
v 0.5 1.2 -0.3
v 0.5 1.5 -0.3
v -0.7 1.3 -0.4
v -0.7 1.5 -0.4
v -0.6 1.3 -0.4
v -0.6 1.5 -0.4
v 0.4 1.5 -0.4
v 0.4 1.6 -0.4
v 0.5 1.5 -0.4
v 0.5 1.6 -0.4
v -1 0.9 -0.9
v -1 1 -0.9
v -0.7 0.9 -0.9
v -0.7 1 -0.9
v 0.1 0.9 -0.9
v 0.1 1 -0.9
v 0.4 0.9 -0.9
v 0.4 1 -0.9
v -0.7 1.3 -0.3
v -0.7 1.5 -0.3
v -0.6 1.3 -0.3
v -0.6 1.5 -0.3
v -1 0.9 -0.4
v -1 1 -0.4
v -0.7 0.9 -0.4
v -0.7 1 -0.4
v 0.1 0.9 -0.4
v 0.1 1 -0.4
v 0.4 0.9 -0.4
v 0.4 1 -0.4
v 0.4 1.5 -0.9
v 0.4 1.6 -0.9
v 0.5 1.5 -0.9
v 0.5 1.6 -0.9
v -1.1 1 -1
v -1.1 1.2 -1
v -1.1 1.5 -1
v -1 0.9 -1
v -1 1 -1
v -1 1.2 -1
v -0.9 1 -1
v -0.9 1.1 -1
v -0.8 1 -1
v -0.8 1.1 -1
v -0.7 0.9 -1
v -0.7 1 -1
v -0.7 1.2 -1
v -0.7 1.3 -1
v -0.7 1.5 -1
v -0.6 1.3 -1
v -0.6 1.5 -1
v -0.6 1.9 -1
v -0.4 1.5 -1
v -0.4 1.7 -1
v 0 1.5 -1
v 0 1.7 -1
v 0.1 0.9 -1
v 0.1 1 -1
v 0.1 1.2 -1
v 0.2 1 -1
v 0.2 1.1 -1
v 0.2 1.5 -1
v 0.2 1.9 -1
v 0.3 1 -1
v 0.3 1.1 -1
v 0.4 0.9 -1
v 0.4 1 -1
v 0.4 1.2 -1
v 0.5 1 -1
v 0.5 1.2 -1
v 0.5 1.5 -1
v -0.7 1.3 -1.1
v -0.7 1.5 -1.1
v -0.6 1.3 -1.1
v -0.6 1.5 -1.1
v -1 0.9 -0.3
v -0.7 0.9 -0.3
v 0.1 0.9 -0.3
v 0.4 0.9 -0.3
v -1 0.9 -0.4
v -0.7 0.9 -0.4
v 0.1 0.9 -0.4
v 0.4 0.9 -0.4
v -1 0.9 -0.9
v -0.7 0.9 -0.9
v 0.1 0.9 -0.9
v 0.4 0.9 -0.9
v -1 0.9 -1
v -0.7 0.9 -1
v 0.1 0.9 -1
v 0.4 0.9 -1
v -1.1 1 -0.3
v -1 1 -0.3
v -0.7 1 -0.3
v 0.1 1 -0.3
v 0.4 1 -0.3
v 0.5 1 -0.3
v -1.1 1 -0.4
v -1 1 -0.4
v -0.7 1 -0.4
v -0.6 1 -0.4
v 0.1 1 -0.4
v 0.4 1 -0.4
v -1.1 1 -0.9
v -1 1 -0.9
v -0.7 1 -0.9
v -0.6 1 -0.9
v 0.1 1 -0.9
v 0.4 1 -0.9
v -1.1 1 -1
v -1 1 -1
v -0.7 1 -1
v 0.1 1 -1
v 0.4 1 -1
v 0.5 1 -1
v -0.7 1.3 -0.2
v -0.6 1.3 -0.2
v -0.7 1.3 -0.3
v -0.6 1.3 -0.3
v -0.7 1.3 -1
v -0.6 1.3 -1
v -0.7 1.3 -1.1
v -0.6 1.3 -1.1
v -0.7 1.3 -0.3
v -0.6 1.3 -0.3
v -0.7 1.3 -0.4
v -0.6 1.3 -0.4
v -0.7 1.5 -0.2
v -0.6 1.5 -0.2
v -1.1 1.5 -0.3
v -0.7 1.5 -0.3
v -0.6 1.5 -0.3
v 0.2 1.5 -0.3
v 0.5 1.5 -0.3
v -1.1 1.5 -0.4
v -0.7 1.5 -0.4
v -0.6 1.5 -0.4
v 0.4 1.5 -0.4
v 0.5 1.5 -0.4
v -1.1 1.5 -0.9
v -0.7 1.5 -0.9
v -0.6 1.5 -0.9
v 0.4 1.5 -0.9
v 0.5 1.5 -0.9
v -1.1 1.5 -1
v -0.7 1.5 -1
v -0.6 1.5 -1
v 0.2 1.5 -1
v 0.5 1.5 -1
v -0.7 1.5 -1.1
v -0.6 1.5 -1.1
v 0.4 1.6 -0.4
v 0.5 1.6 -0.4
v 0.4 1.6 -0.9
v 0.5 1.6 -0.9
v -0.6 1.9 -0.3
v 0.2 1.9 -0.3
v -0.6 1.9 -1
v 0.2 1.9 -1

# faces
f 5/3/1 2/3/1 1/3/1
f 6/2/1 3/2/1 2/2/1
f 6/3/1 2/3/1 5/3/1
f 7/3/1 4/3/1 3/3/1
f 7/2/1 3/2/1 6/2/1
f 8/3/1 4/3/1 7/3/1
f 9/1/1 6/1/1 5/1/1
f 10/2/1 7/2/1 6/2/1
f 10/1/1 6/1/1 9/1/1
f 11/1/1 8/1/1 7/1/1
f 11/2/1 7/2/1 10/2/1
f 12/1/1 8/1/1 11/1/1
f 17/6/1 14/6/1 13/6/1
f 18/6/1 14/6/1 17/6/1
f 19/6/1 16/6/1 15/6/1
f 20/6/1 16/6/1 19/6/1
f 25/5/1 22/5/1 21/5/1
f 26/5/1 22/5/1 25/5/1
f 27/5/1 24/5/1 23/5/1
f 28/5/1 24/5/1 27/5/1
f 31/1/1 30/1/1 29/1/1
f 32/1/1 30/1/1 31/1/1
f 35/3/1 32/3/1 31/3/1
f 35/6/1 33/6/1 32/6/1
f 36/3/1 34/3/1 33/3/1
f 36/6/1 33/6/1 35/6/1
f 37/3/1 35/3/1 31/3/1
f 37/3/1 36/3/1 35/3/1
f 38/3/1 34/3/1 36/3/1
f 38/3/1 36/3/1 37/3/1
f 43/6/1 40/6/1 39/6/1
f 44/6/1 40/6/1 43/6/1
f 45/6/1 42/6/1 41/6/1
f 46/6/1 42/6/1 45/6/1
f 49/2/1 48/2/1 47/2/1
f 50/2/1 48/2/1 49/2/1
f 51/6/2 52/6/2 55/6/2
f 55/6/2 52/6/2 56/6/2
f 53/6/2 54/6/2 57/6/2
f 57/6/2 54/6/2 58/6/2
f 59/1/2 60/1/2 61/1/2
f 61/1/2 60/1/2 62/1/2
f 63/5/2 64/5/2 67/5/2
f 67/5/2 64/5/2 68/5/2
f 65/5/2 66/5/2 69/5/2
f 69/5/2 66/5/2 70/5/2
f 71/3/2 72/3/2 73/3/2
f 73/3/2 72/3/2 74/3/2
f 75/6/2 76/6/2 79/6/2
f 79/6/2 76/6/2 80/6/2
f 77/6/2 78/6/2 81/6/2
f 81/6/2 78/6/2 82/6/2
f 83/3/2 84/3/2 85/3/2
f 85/3/2 84/3/2 86/3/2
f 85/1/2 86/1/2 87/1/2
f 87/1/2 86/1/2 88/1/2
f 88/1/2 86/1/2 89/1/2
f 89/1/2 86/1/2 90/1/2
f 88/2/2 89/2/2 91/2/2
f 91/2/2 89/2/2 92/2/2
f 95/5/3 94/5/3 93/5/3
f 96/5/3 94/5/3 95/5/3
f 101/3/3 98/3/3 97/3/3
f 102/1/3 99/1/3 98/1/3
f 102/3/3 98/3/3 101/3/3
f 103/6/3 101/6/3 100/6/3
f 103/6/3 102/6/3 101/6/3
f 104/6/3 102/6/3 103/6/3
f 105/6/3 103/6/3 100/6/3
f 105/4/3 104/4/3 103/4/3
f 106/6/3 102/6/3 104/6/3
f 106/4/3 104/4/3 105/4/3
f 107/6/3 105/6/3 100/6/3
f 107/6/3 106/6/3 105/6/3
f 108/6/3 106/6/3 107/6/3
f 109/1/3 99/1/3 102/1/3
f 109/6/3 106/6/3 108/6/3
f 109/6/3 102/6/3 106/6/3
f 110/1/3 99/1/3 109/1/3
f 111/1/3 99/1/3 110/1/3
f 112/1/3 110/1/3 109/1/3
f 115/1/3 113/1/3 112/1/3
f 115/3/3 114/3/3 113/3/3
f 116/3/3 114/3/3 115/3/3
f 117/1/3 115/1/3 112/1/3
f 117/6/3 116/6/3 115/6/3
f 118/3/3 114/3/3 116/3/3
f 118/6/3 116/6/3 117/6/3
f 120/3/3 109/3/3 108/3/3
f 121/1/3 112/1/3 109/1/3
f 121/1/3 117/1/3 112/1/3
f 121/3/3 109/3/3 120/3/3
f 122/6/3 120/6/3 119/6/3
f 122/6/3 121/6/3 120/6/3
f 123/6/3 121/6/3 122/6/3
f 124/1/3 117/1/3 121/1/3
f 124/3/3 118/3/3 117/3/3
f 125/3/3 114/3/3 118/3/3
f 125/3/3 118/3/3 124/3/3
f 126/4/3 123/4/3 122/4/3
f 126/6/3 122/6/3 119/6/3
f 127/6/3 121/6/3 123/6/3
f 127/4/3 123/4/3 126/4/3
f 128/6/3 126/6/3 119/6/3
f 128/6/3 127/6/3 126/6/3
f 129/6/3 127/6/3 128/6/3
f 130/6/3 121/6/3 127/6/3
f 130/6/3 127/6/3 129/6/3
f 130/1/3 124/1/3 121/1/3
f 131/3/3 130/3/3 129/3/3
f 132/1/3 124/1/3 130/1/3
f 132/3/3 130/3/3 131/3/3
f 133/1/3 124/1/3 132/1/3
f 136/2/3 135/2/3 134/2/3
f 137/2/3 135/2/3 136/2/3
f 140/2/3 139/2/3 138/2/3
f 141/2/3 139/2/3 140/2/3
f 144/6/3 143/6/3 142/6/3
f 145/6/3 143/6/3 144/6/3
f 148/6/3 147/6/3 146/6/3
f 149/6/3 147/6/3 148/6/3
f 150/5/4 151/5/4 152/5/4
f 152/5/4 151/5/4 153/5/4
f 154/6/4 155/6/4 156/6/4
f 156/6/4 155/6/4 157/6/4
f 158/6/4 159/6/4 160/6/4
f 160/6/4 159/6/4 161/6/4
f 162/2/4 163/2/4 164/2/4
f 164/2/4 163/2/4 165/2/4
f 166/3/4 167/3/4 170/3/4
f 167/1/4 168/1/4 171/1/4
f 170/3/4 167/3/4 171/3/4
f 169/6/4 170/6/4 172/6/4
f 170/6/4 171/6/4 172/6/4
f 172/6/4 171/6/4 173/6/4
f 169/6/4 172/6/4 174/6/4
f 172/4/4 173/4/4 174/4/4
f 173/6/4 171/6/4 175/6/4
f 174/4/4 173/4/4 175/4/4
f 169/6/4 174/6/4 176/6/4
f 174/6/4 175/6/4 176/6/4
f 176/6/4 175/6/4 177/6/4
f 171/1/4 168/1/4 178/1/4
f 177/6/4 175/6/4 178/6/4
f 175/6/4 171/6/4 178/6/4
f 178/1/4 168/1/4 179/1/4
f 179/1/4 168/1/4 180/1/4
f 178/1/4 179/1/4 181/1/4
f 181/1/4 182/1/4 184/1/4
f 182/3/4 183/3/4 184/3/4
f 184/3/4 183/3/4 185/3/4
f 181/1/4 184/1/4 186/1/4
f 184/6/4 185/6/4 186/6/4
f 185/3/4 183/3/4 187/3/4
f 186/6/4 185/6/4 187/6/4
f 177/3/4 178/3/4 189/3/4
f 178/1/4 181/1/4 190/1/4
f 181/1/4 186/1/4 190/1/4
f 189/3/4 178/3/4 190/3/4
f 188/6/4 189/6/4 191/6/4
f 189/6/4 190/6/4 191/6/4
f 191/6/4 190/6/4 192/6/4
f 190/1/4 186/1/4 193/1/4
f 186/3/4 187/3/4 193/3/4
f 187/3/4 183/3/4 194/3/4
f 193/3/4 187/3/4 194/3/4
f 191/4/4 192/4/4 195/4/4
f 188/6/4 191/6/4 195/6/4
f 192/6/4 190/6/4 196/6/4
f 195/4/4 192/4/4 196/4/4
f 188/6/4 195/6/4 197/6/4
f 195/6/4 196/6/4 197/6/4
f 197/6/4 196/6/4 198/6/4
f 196/6/4 190/6/4 199/6/4
f 198/6/4 196/6/4 199/6/4
f 190/1/4 193/1/4 199/1/4
f 198/3/4 199/3/4 200/3/4
f 199/1/4 193/1/4 201/1/4
f 200/3/4 199/3/4 201/3/4
f 201/1/4 193/1/4 202/1/4
f 203/5/4 204/5/4 205/5/4
f 205/5/4 204/5/4 206/5/4
f 211/6/5 208/6/5 207/6/5
f 212/6/5 208/6/5 211/6/5
f 213/6/5 210/6/5 209/6/5
f 214/6/5 210/6/5 213/6/5
f 219/6/5 216/6/5 215/6/5
f 220/6/5 216/6/5 219/6/5
f 221/6/5 218/6/5 217/6/5
f 222/6/5 218/6/5 221/6/5
f 229/3/5 224/3/5 223/3/5
f 230/3/5 224/3/5 229/3/5
f 231/3/5 226/3/5 225/3/5
f 232/3/5 226/3/5 231/3/5
f 233/3/5 226/3/5 232/3/5
f 234/3/5 228/3/5 227/3/5
f 235/2/5 230/2/5 229/2/5
f 235/2/5 231/2/5 230/2/5
f 235/2/5 232/2/5 231/2/5
f 236/2/5 232/2/5 235/2/5
f 237/2/5 232/2/5 236/2/5
f 238/3/5 233/3/5 232/3/5
f 238/2/5 232/2/5 237/2/5
f 238/3/5 234/3/5 233/3/5
f 239/3/5 234/3/5 238/3/5
f 240/3/5 228/3/5 234/3/5
f 240/3/5 234/3/5 239/3/5
f 241/3/5 236/3/5 235/3/5
f 242/3/5 236/3/5 241/3/5
f 243/3/5 238/3/5 237/3/5
f 243/3/5 239/3/5 238/3/5
f 244/3/5 239/3/5 243/3/5
f 245/3/5 228/3/5 240/3/5
f 246/3/5 228/3/5 245/3/5
f 249/5/5 248/5/5 247/5/5
f 250/5/5 248/5/5 249/5/5
f 253/5/5 252/5/5 251/5/5
f 254/5/5 252/5/5 253/5/5
f 255/1/6 256/1/6 257/1/6
f 257/1/6 256/1/6 258/1/6
f 259/5/6 260/5/6 262/5/6
f 262/5/6 260/5/6 263/5/6
f 261/1/6 262/1/6 266/1/6
f 266/1/6 262/1/6 267/1/6
f 264/1/6 265/1/6 269/1/6
f 269/1/6 265/1/6 270/1/6
f 267/2/6 268/2/6 271/2/6
f 266/2/6 267/2/6 271/2/6
f 271/2/6 268/2/6 272/2/6
f 272/2/6 268/2/6 273/2/6
f 264/1/6 269/1/6 274/1/6
f 271/1/6 272/1/6 276/1/6
f 272/4/6 273/4/6 277/4/6
f 276/1/6 272/1/6 277/1/6
f 277/4/6 273/4/6 278/4/6
f 274/1/6 275/1/6 279/1/6
f 264/1/6 274/1/6 279/1/6
f 279/1/6 275/1/6 280/1/6
f 277/5/6 278/5/6 281/5/6
f 281/5/6 278/5/6 282/5/6
f 283/2/6 284/2/6 285/2/6
f 285/2/6 284/2/6 286/2/6
f 287/3/6 288/3/6 289/3/6
f 289/3/6 288/3/6 290/3/6
