# MagicaVoxel @ Ephtracy

# group
o 

# material
mtllib log_1.mtl
usemtl palette

# normals
vn -1 0 0
vn 1 0 0
vn 0 0 1
vn 0 0 -1
vn 0 -1 0
vn 0 1 0

# texcoords
vt 0.369141 0.5
vt 0.537109 0.5

# verts
v -1.8 0.5 0.6
v -1.8 0.5 -0.3
v -1.8 0.8 0.6
v -1.8 0.8 -0.3
v -1.7 0.4 0.6
v -1.7 0.4 -0.3
v -1.7 0.5 0.6
v -1.7 0.5 -0.3
v -1.6 0.3 0.6
v -1.6 0.3 -0.3
v -1.6 0.4 0.6
v -1.6 0.4 -0.3
v -1.5 0.2 0.6
v -1.5 0.2 -0.3
v -1.5 0.3 0.6
v -1.5 0.3 -0.3
v 0.6 0.5 1.1
v 0.6 0.5 0.8
v 0.6 0.6 1.1
v 0.6 0.6 0.8
v 0.7 0.5 0.8
v 0.7 0.5 0.6
v 0.7 0.5 0.5
v 0.7 0.5 0.2
v 0.7 0.6 0.8
v 0.7 0.6 0.2
v 0.9 0.4 -0.5
v 0.9 0.4 -0.8
v 0.9 0.5 0.1
v 0.9 0.5 -0.2
v 0.9 0.5 -0.3
v 0.9 0.5 -0.5
v 0.9 0.6 0.1
v 0.9 0.6 -0.5
v 0.9 0.7 -0.5
v 0.9 0.7 -0.8
v 1.2 0.4 0.5
v 1.2 0.4 -0.2
v 1.2 0.5 0.5
v 1.2 0.5 -0.2
v 1.4 0.5 0.6
v 1.4 0.5 0.5
v 1.4 0.5 -0.2
v 1.4 0.5 -0.3
v 1.4 0.6 0.6
v 1.4 0.6 0.5
v 1.4 0.6 -0.2
v 1.4 0.6 -0.3
v 1.5 0.6 0.6
v 1.5 0.6 0.5
v 1.5 0.6 -0.2
v 1.5 0.6 -0.3
v 1.5 0.7 0.6
v 1.5 0.7 0.5
v 1.5 0.7 -0.2
v 1.5 0.7 -0.3
v 1.6 0.7 0.6
v 1.6 0.7 0.5
v 1.6 0.7 -0.2
v 1.6 0.7 -0.3
v 1.6 0.8 0.6
v 1.6 0.8 -0.3
v -1.7 0.7 0.6
v -1.7 0.7 0.5
v -1.7 0.7 -0.2
v -1.7 0.7 -0.3
v -1.7 0.8 0.6
v -1.7 0.8 -0.3
v -1.6 0.6 0.6
v -1.6 0.6 0.5
v -1.6 0.6 -0.2
v -1.6 0.6 -0.3
v -1.6 0.7 0.6
v -1.6 0.7 0.5
v -1.6 0.7 -0.2
v -1.6 0.7 -0.3
v -1.5 0.5 0.6
v -1.5 0.5 0.5
v -1.5 0.5 -0.2
v -1.5 0.5 -0.3
v -1.5 0.6 0.6
v -1.5 0.6 0.5
v -1.5 0.6 -0.2
v -1.5 0.6 -0.3
v -1.3 0.4 0.5
v -1.3 0.4 -0.2
v -1.3 0.5 0.5
v -1.3 0.5 -0.2
v 0.8 0.5 0.8
v 0.8 0.5 0.6
v 0.8 0.5 0.5
v 0.8 0.5 0.2
v 0.8 0.6 0.8
v 0.8 0.6 0.2
v 0.9 0.5 1.1
v 0.9 0.5 0.8
v 0.9 0.6 1.1
v 0.9 0.6 0.8
v 1 0.4 -0.5
v 1 0.4 -0.8
v 1 0.5 0.1
v 1 0.5 -0.2
v 1 0.5 -0.3
v 1 0.5 -0.5
v 1 0.6 0.1
v 1 0.6 -0.5
v 1 0.7 -0.5
v 1 0.7 -0.8
v 1.4 0.2 0.6
v 1.4 0.2 -0.3
v 1.4 0.3 0.6
v 1.4 0.3 -0.3
v 1.5 0.3 0.6
v 1.5 0.3 -0.3
v 1.5 0.4 0.6
v 1.5 0.4 -0.3
v 1.6 0.4 0.6
v 1.6 0.4 -0.3
v 1.6 0.5 0.6
v 1.6 0.5 -0.3
v 1.7 0.5 0.6
v 1.7 0.5 -0.3
v 1.7 0.8 0.6
v 1.7 0.8 -0.3
v 0.6 0.5 1.1
v 0.6 0.6 1.1
v 0.9 0.5 1.1
v 0.9 0.6 1.1
v -1.8 0.5 0.6
v -1.8 0.8 0.6
v -1.7 0.4 0.6
v -1.7 0.5 0.6
v -1.7 0.7 0.6
v -1.7 0.8 0.6
v -1.6 0.3 0.6
v -1.6 0.4 0.6
v -1.6 0.6 0.6
v -1.6 0.7 0.6
v -1.5 0.2 0.6
v -1.5 0.3 0.6
v -1.5 0.5 0.6
v -1.5 0.6 0.6
v 0.7 0.5 0.6
v 0.8 0.5 0.6
v 1.4 0.2 0.6
v 1.4 0.3 0.6
v 1.4 0.5 0.6
v 1.4 0.6 0.6
v 1.5 0.3 0.6
v 1.5 0.4 0.6
v 1.5 0.6 0.6
v 1.5 0.7 0.6
v 1.6 0.4 0.6
v 1.6 0.5 0.6
v 1.6 0.7 0.6
v 1.6 0.8 0.6
v 1.7 0.5 0.6
v 1.7 0.8 0.6
v 0.9 0.5 0.1
v 0.9 0.6 0.1
v 1 0.5 0.1
v 1 0.6 0.1
v -1.3 0.4 -0.2
v -1.3 0.5 -0.2
v 0.9 0.5 -0.2
v 1 0.5 -0.2
v 1.2 0.4 -0.2
v 1.2 0.5 -0.2
v 0.9 0.4 -0.5
v 0.9 0.5 -0.5
v 0.9 0.6 -0.5
v 0.9 0.7 -0.5
v 1 0.4 -0.5
v 1 0.5 -0.5
v 1 0.6 -0.5
v 1 0.7 -0.5
v 0.6 0.5 0.8
v 0.6 0.6 0.8
v 0.7 0.5 0.8
v 0.7 0.6 0.8
v 0.8 0.5 0.8
v 0.8 0.6 0.8
v 0.9 0.5 0.8
v 0.9 0.6 0.8
v -1.3 0.4 0.5
v -1.3 0.5 0.5
v 0.7 0.5 0.5
v 0.8 0.5 0.5
v 1.2 0.4 0.5
v 1.2 0.5 0.5
v 0.7 0.5 0.2
v 0.7 0.6 0.2
v 0.8 0.5 0.2
v 0.8 0.6 0.2
v -1.8 0.5 -0.3
v -1.8 0.8 -0.3
v -1.7 0.4 -0.3
v -1.7 0.5 -0.3
v -1.7 0.7 -0.3
v -1.7 0.8 -0.3
v -1.6 0.3 -0.3
v -1.6 0.4 -0.3
v -1.6 0.6 -0.3
v -1.6 0.7 -0.3
v -1.5 0.2 -0.3
v -1.5 0.3 -0.3
v -1.5 0.5 -0.3
v -1.5 0.6 -0.3
v 0.9 0.5 -0.3
v 1 0.5 -0.3
v 1.4 0.2 -0.3
v 1.4 0.3 -0.3
v 1.4 0.5 -0.3
v 1.4 0.6 -0.3
v 1.5 0.3 -0.3
v 1.5 0.4 -0.3
v 1.5 0.6 -0.3
v 1.5 0.7 -0.3
v 1.6 0.4 -0.3
v 1.6 0.5 -0.3
v 1.6 0.7 -0.3
v 1.6 0.8 -0.3
v 1.7 0.5 -0.3
v 1.7 0.8 -0.3
v 0.9 0.4 -0.8
v 0.9 0.7 -0.8
v 1 0.4 -0.8
v 1 0.7 -0.8
v -1.5 0.2 0.6
v 1.4 0.2 0.6
v -1.5 0.2 -0.3
v 1.4 0.2 -0.3
v -1.6 0.3 0.6
v -1.5 0.3 0.6
v 1.4 0.3 0.6
v 1.5 0.3 0.6
v -1.6 0.3 -0.3
v -1.5 0.3 -0.3
v 1.4 0.3 -0.3
v 1.5 0.3 -0.3
v -1.7 0.4 0.6
v -1.6 0.4 0.6
v 1.5 0.4 0.6
v 1.6 0.4 0.6
v -1.7 0.4 -0.3
v -1.6 0.4 -0.3
v 1.5 0.4 -0.3
v 1.6 0.4 -0.3
v 0.9 0.4 -0.5
v 1 0.4 -0.5
v 0.9 0.4 -0.8
v 1 0.4 -0.8
v 0.6 0.5 1.1
v 0.9 0.5 1.1
v 0.6 0.5 0.8
v 0.7 0.5 0.8
v 0.8 0.5 0.8
v 0.9 0.5 0.8
v -1.8 0.5 0.6
v -1.7 0.5 0.6
v 0.7 0.5 0.6
v 0.8 0.5 0.6
v 1.6 0.5 0.6
v 1.7 0.5 0.6
v 0.7 0.5 0.5
v 0.8 0.5 0.5
v 0.7 0.5 0.2
v 0.8 0.5 0.2
v 0.9 0.5 0.1
v 1 0.5 0.1
v 0.9 0.5 -0.2
v 1 0.5 -0.2
v -1.8 0.5 -0.3
v -1.7 0.5 -0.3
v 0.9 0.5 -0.3
v 1 0.5 -0.3
v 1.6 0.5 -0.3
v 1.7 0.5 -0.3
v 0.9 0.5 -0.5
v 1 0.5 -0.5
v -1.3 0.4 0.5
v 1.2 0.4 0.5
v -1.3 0.4 -0.2
v 1.2 0.4 -0.2
v -1.5 0.5 0.6
v 0.7 0.5 0.6
v 0.8 0.5 0.6
v 1.4 0.5 0.6
v -1.5 0.5 0.5
v -1.4 0.5 0.5
v -1.3 0.5 0.5
v 0.7 0.5 0.5
v 0.8 0.5 0.5
v 1.2 0.5 0.5
v 1.3 0.5 0.5
v 1.4 0.5 0.5
v -1.5 0.5 -0.2
v -1.4 0.5 -0.2
v -1.3 0.5 -0.2
v 0.9 0.5 -0.2
v 1 0.5 -0.2
v 1.2 0.5 -0.2
v 1.3 0.5 -0.2
v 1.4 0.5 -0.2
v -1.5 0.5 -0.3
v 0.9 0.5 -0.3
v 1 0.5 -0.3
v 1.4 0.5 -0.3
v 0.6 0.6 1.1
v 0.9 0.6 1.1
v 0.6 0.6 0.8
v 0.7 0.6 0.8
v 0.8 0.6 0.8
v 0.9 0.6 0.8
v -1.6 0.6 0.6
v -1.5 0.6 0.6
v 1.4 0.6 0.6
v 1.5 0.6 0.6
v -1.6 0.6 0.5
v -1.5 0.6 0.5
v 1.4 0.6 0.5
v 1.5 0.6 0.5
v 0.7 0.6 0.2
v 0.8 0.6 0.2
v 0.9 0.6 0.1
v 1 0.6 0.1
v -1.6 0.6 -0.2
v -1.5 0.6 -0.2
v 1.4 0.6 -0.2
v 1.5 0.6 -0.2
v -1.6 0.6 -0.3
v -1.5 0.6 -0.3
v 1.4 0.6 -0.3
v 1.5 0.6 -0.3
v 0.9 0.6 -0.5
v 1 0.6 -0.5
v -1.7 0.7 0.6
v -1.6 0.7 0.6
v 1.5 0.7 0.6
v 1.6 0.7 0.6
v -1.7 0.7 0.5
v -1.6 0.7 0.5
v 1.5 0.7 0.5
v 1.6 0.7 0.5
v -1.7 0.7 -0.2
v -1.6 0.7 -0.2
v 1.5 0.7 -0.2
v 1.6 0.7 -0.2
v -1.7 0.7 -0.3
v -1.6 0.7 -0.3
v 1.5 0.7 -0.3
v 1.6 0.7 -0.3
v 0.9 0.7 -0.5
v 1 0.7 -0.5
v 0.9 0.7 -0.8
v 1 0.7 -0.8
v -1.8 0.8 0.6
v -1.7 0.8 0.6
v 1.6 0.8 0.6
v 1.7 0.8 0.6
v -1.8 0.8 -0.3
v -1.7 0.8 -0.3
v 1.6 0.8 -0.3
v 1.7 0.8 -0.3

# faces
f 3/2/1 2/2/1 1/2/1
f 4/2/1 2/2/1 3/2/1
f 7/2/1 6/2/1 5/2/1
f 8/2/1 6/2/1 7/2/1
f 11/2/1 10/2/1 9/2/1
f 12/2/1 10/2/1 11/2/1
f 15/2/1 14/2/1 13/2/1
f 16/2/1 14/2/1 15/2/1
f 19/1/1 18/1/1 17/1/1
f 20/1/1 18/1/1 19/1/1
f 25/1/1 22/1/1 21/1/1
f 25/1/1 24/1/1 23/1/1
f 25/1/1 23/1/1 22/1/1
f 26/1/1 24/1/1 25/1/1
f 32/1/1 28/1/1 27/1/1
f 33/1/1 31/1/1 30/1/1
f 33/1/1 32/1/1 31/1/1
f 33/1/1 30/1/1 29/1/1
f 34/1/1 28/1/1 32/1/1
f 34/1/1 32/1/1 33/1/1
f 35/1/1 28/1/1 34/1/1
f 36/1/1 28/1/1 35/1/1
f 39/2/1 38/2/1 37/2/1
f 40/2/1 38/2/1 39/2/1
f 45/2/1 42/2/1 41/2/1
f 46/1/1 43/1/1 42/1/1
f 46/2/1 42/2/1 45/2/1
f 47/2/1 44/2/1 43/2/1
f 47/1/1 43/1/1 46/1/1
f 48/2/1 44/2/1 47/2/1
f 53/2/1 50/2/1 49/2/1
f 54/1/1 51/1/1 50/1/1
f 54/2/1 50/2/1 53/2/1
f 55/2/1 52/2/1 51/2/1
f 55/1/1 51/1/1 54/1/1
f 56/2/1 52/2/1 55/2/1
f 61/2/1 58/2/1 57/2/1
f 61/2/1 60/2/1 59/2/1
f 61/2/1 59/2/1 58/2/1
f 62/2/1 60/2/1 61/2/1
f 63/2/2 64/2/2 67/2/2
f 65/2/2 66/2/2 67/2/2
f 64/2/2 65/2/2 67/2/2
f 67/2/2 66/2/2 68/2/2
f 69/2/2 70/2/2 73/2/2
f 70/1/2 71/1/2 74/1/2
f 73/2/2 70/2/2 74/2/2
f 71/2/2 72/2/2 75/2/2
f 74/1/2 71/1/2 75/1/2
f 75/2/2 72/2/2 76/2/2
f 77/2/2 78/2/2 81/2/2
f 78/1/2 79/1/2 82/1/2
f 81/2/2 78/2/2 82/2/2
f 79/2/2 80/2/2 83/2/2
f 82/1/2 79/1/2 83/1/2
f 83/2/2 80/2/2 84/2/2
f 85/2/2 86/2/2 87/2/2
f 87/2/2 86/2/2 88/2/2
f 89/1/2 90/1/2 93/1/2
f 91/1/2 92/1/2 93/1/2
f 90/1/2 91/1/2 93/1/2
f 93/1/2 92/1/2 94/1/2
f 95/1/2 96/1/2 97/1/2
f 97/1/2 96/1/2 98/1/2
f 99/1/2 100/1/2 104/1/2
f 102/1/2 103/1/2 105/1/2
f 103/1/2 104/1/2 105/1/2
f 101/1/2 102/1/2 105/1/2
f 104/1/2 100/1/2 106/1/2
f 105/1/2 104/1/2 106/1/2
f 106/1/2 100/1/2 107/1/2
f 107/1/2 100/1/2 108/1/2
f 109/2/2 110/2/2 111/2/2
f 111/2/2 110/2/2 112/2/2
f 113/2/2 114/2/2 115/2/2
f 115/2/2 114/2/2 116/2/2
f 117/2/2 118/2/2 119/2/2
f 119/2/2 118/2/2 120/2/2
f 121/2/2 122/2/2 123/2/2
f 123/2/2 122/2/2 124/2/2
f 127/1/3 126/1/3 125/1/3
f 128/1/3 126/1/3 127/1/3
f 132/2/3 130/2/3 129/2/3
f 133/2/3 130/2/3 132/2/3
f 134/2/3 130/2/3 133/2/3
f 136/2/3 132/2/3 131/2/3
f 136/2/3 133/2/3 132/2/3
f 137/2/3 133/2/3 136/2/3
f 138/2/3 133/2/3 137/2/3
f 140/2/3 136/2/3 135/2/3
f 140/2/3 137/2/3 136/2/3
f 141/2/3 137/2/3 140/2/3
f 142/2/3 137/2/3 141/2/3
f 143/2/3 140/2/3 139/2/3
f 143/2/3 141/2/3 140/2/3
f 144/2/3 143/2/3 139/2/3
f 145/2/3 144/2/3 139/2/3
f 146/2/3 144/2/3 145/2/3
f 147/2/3 144/2/3 146/2/3
f 149/2/3 147/2/3 146/2/3
f 149/2/3 148/2/3 147/2/3
f 150/2/3 148/2/3 149/2/3
f 151/2/3 148/2/3 150/2/3
f 153/2/3 151/2/3 150/2/3
f 153/2/3 152/2/3 151/2/3
f 154/2/3 152/2/3 153/2/3
f 155/2/3 152/2/3 154/2/3
f 157/2/3 155/2/3 154/2/3
f 157/2/3 156/2/3 155/2/3
f 158/2/3 156/2/3 157/2/3
f 161/1/3 160/1/3 159/1/3
f 162/1/3 160/1/3 161/1/3
f 165/2/3 164/2/3 163/2/3
f 166/2/3 165/2/3 163/2/3
f 167/2/3 166/2/3 163/2/3
f 168/2/3 166/2/3 167/2/3
f 173/1/3 170/1/3 169/1/3
f 174/1/3 170/1/3 173/1/3
f 175/1/3 172/1/3 171/1/3
f 176/1/3 172/1/3 175/1/3
f 177/1/4 178/1/4 179/1/4
f 179/1/4 178/1/4 180/1/4
f 181/1/4 182/1/4 183/1/4
f 183/1/4 182/1/4 184/1/4
f 185/2/4 186/2/4 187/2/4
f 185/2/4 187/2/4 188/2/4
f 185/2/4 188/2/4 189/2/4
f 189/2/4 188/2/4 190/2/4
f 191/1/4 192/1/4 193/1/4
f 193/1/4 192/1/4 194/1/4
f 195/2/4 196/2/4 198/2/4
f 198/2/4 196/2/4 199/2/4
f 199/2/4 196/2/4 200/2/4
f 197/2/4 198/2/4 202/2/4
f 198/2/4 199/2/4 202/2/4
f 202/2/4 199/2/4 203/2/4
f 203/2/4 199/2/4 204/2/4
f 201/2/4 202/2/4 206/2/4
f 202/2/4 203/2/4 206/2/4
f 206/2/4 203/2/4 207/2/4
f 207/2/4 203/2/4 208/2/4
f 205/2/4 206/2/4 209/2/4
f 206/2/4 207/2/4 209/2/4
f 205/2/4 209/2/4 210/2/4
f 205/2/4 210/2/4 211/2/4
f 211/2/4 210/2/4 212/2/4
f 212/2/4 210/2/4 213/2/4
f 212/2/4 213/2/4 215/2/4
f 213/2/4 214/2/4 215/2/4
f 215/2/4 214/2/4 216/2/4
f 216/2/4 214/2/4 217/2/4
f 216/2/4 217/2/4 219/2/4
f 217/2/4 218/2/4 219/2/4
f 219/2/4 218/2/4 220/2/4
f 220/2/4 218/2/4 221/2/4
f 220/2/4 221/2/4 223/2/4
f 221/2/4 222/2/4 223/2/4
f 223/2/4 222/2/4 224/2/4
f 225/1/4 226/1/4 227/1/4
f 227/1/4 226/1/4 228/1/4
f 231/2/5 230/2/5 229/2/5
f 232/2/5 230/2/5 231/2/5
f 237/2/5 234/2/5 233/2/5
f 238/2/5 234/2/5 237/2/5
f 239/2/5 236/2/5 235/2/5
f 240/2/5 236/2/5 239/2/5
f 245/2/5 242/2/5 241/2/5
f 246/2/5 242/2/5 245/2/5
f 247/2/5 244/2/5 243/2/5
f 248/2/5 244/2/5 247/2/5
f 251/1/5 250/1/5 249/1/5
f 252/1/5 250/1/5 251/1/5
f 255/1/5 254/1/5 253/1/5
f 256/1/5 254/1/5 255/1/5
f 257/1/5 254/1/5 256/1/5
f 258/1/5 254/1/5 257/1/5
f 261/1/5 257/1/5 256/1/5
f 262/1/5 257/1/5 261/1/5
f 267/1/5 266/1/5 265/1/5
f 268/1/5 266/1/5 267/1/5
f 271/1/5 270/1/5 269/1/5
f 272/1/5 270/1/5 271/1/5
f 273/2/5 260/2/5 259/2/5
f 274/2/5 260/2/5 273/2/5
f 277/2/5 264/2/5 263/2/5
f 278/2/5 264/2/5 277/2/5
f 279/1/5 276/1/5 275/1/5
f 280/1/5 276/1/5 279/1/5
f 281/1/6 282/1/6 283/1/6
f 283/1/6 282/1/6 284/1/6
f 285/2/6 286/2/6 289/2/6
f 289/2/6 286/2/6 290/2/6
f 290/2/6 286/2/6 291/2/6
f 291/2/6 286/2/6 292/2/6
f 287/2/6 288/2/6 293/2/6
f 293/2/6 288/2/6 294/2/6
f 294/2/6 288/2/6 295/2/6
f 295/2/6 288/2/6 296/2/6
f 289/1/6 290/1/6 297/1/6
f 290/2/6 291/2/6 298/2/6
f 297/1/6 290/1/6 298/1/6
f 298/2/6 291/2/6 299/2/6
f 294/2/6 295/2/6 302/2/6
f 295/1/6 296/1/6 303/1/6
f 302/2/6 295/2/6 303/2/6
f 303/1/6 296/1/6 304/1/6
f 299/2/6 300/2/6 305/2/6
f 297/2/6 298/2/6 305/2/6
f 298/2/6 299/2/6 305/2/6
f 305/2/6 300/2/6 306/2/6
f 301/2/6 302/2/6 307/2/6
f 303/2/6 304/2/6 307/2/6
f 302/2/6 303/2/6 307/2/6
f 307/2/6 304/2/6 308/2/6
f 309/1/6 310/1/6 311/1/6
f 311/1/6 310/1/6 312/1/6
f 312/1/6 310/1/6 313/1/6
f 313/1/6 310/1/6 314/1/6
f 315/2/6 316/2/6 319/2/6
f 319/2/6 316/2/6 320/2/6
f 317/2/6 318/2/6 321/2/6
f 321/2/6 318/2/6 322/2/6
f 312/1/6 313/1/6 323/1/6
f 323/1/6 313/1/6 324/1/6
f 319/1/6 320/1/6 327/1/6
f 327/1/6 320/1/6 328/1/6
f 321/1/6 322/1/6 329/1/6
f 329/1/6 322/1/6 330/1/6
f 327/2/6 328/2/6 331/2/6
f 331/2/6 328/2/6 332/2/6
f 329/2/6 330/2/6 333/2/6
f 333/2/6 330/2/6 334/2/6
f 325/1/6 326/1/6 335/1/6
f 335/1/6 326/1/6 336/1/6
f 337/2/6 338/2/6 341/2/6
f 341/2/6 338/2/6 342/2/6
f 339/2/6 340/2/6 343/2/6
f 343/2/6 340/2/6 344/2/6
f 341/1/6 342/1/6 345/1/6
f 345/1/6 342/1/6 346/1/6
f 343/1/6 344/1/6 347/1/6
f 347/1/6 344/1/6 348/1/6
f 345/2/6 346/2/6 349/2/6
f 349/2/6 346/2/6 350/2/6
f 347/2/6 348/2/6 351/2/6
f 351/2/6 348/2/6 352/2/6
f 353/1/6 354/1/6 355/1/6
f 355/1/6 354/1/6 356/1/6
f 357/2/6 358/2/6 361/2/6
f 361/2/6 358/2/6 362/2/6
f 359/2/6 360/2/6 363/2/6
f 363/2/6 360/2/6 364/2/6
