# MagicaVoxel @ Ephtracy

# group
o 

# material
mtllib log.mtl
usemtl palette

# normals
vn -1 0 0
vn 1 0 0
vn 0 0 1
vn 0 0 -1
vn 0 -1 0
vn 0 1 0

# texcoords
vt 0.158203 0.5
vt 0.162109 0.5

# verts
v -1 0 -0.4
v -1 0 -0.5
v -1 0 -0.6
v -1 0 -0.7
v -1 0.1 -0.5
v -1 0.1 -0.6
v -1 0.2 -0.4
v -1 0.2 -0.7
v 0.1 0 -0.4
v 0.1 0 -0.5
v 0.1 0 -0.6
v 0.1 0 -0.7
v 0.1 0.1 -0.4
v 0.1 0.1 -0.5
v 0.1 0.1 -0.6
v 0.1 0.1 -0.7
v -0.8 0 -0.4
v -0.8 0 -0.5
v -0.8 0 -0.6
v -0.8 0 -0.7
v -0.8 0.1 -0.4
v -0.8 0.1 -0.5
v -0.8 0.1 -0.6
v -0.8 0.1 -0.7
v 0.3 0 -0.4
v 0.3 0 -0.5
v 0.3 0 -0.6
v 0.3 0 -0.7
v 0.3 0.1 -0.5
v 0.3 0.1 -0.6
v 0.3 0.2 -0.4
v 0.3 0.2 -0.7
v -1 0 -0.4
v -1 0.2 -0.4
v -0.9 0 -0.4
v -0.9 0.2 -0.4
v -0.8 0 -0.4
v -0.8 0.1 -0.4
v 0.1 0 -0.4
v 0.1 0.1 -0.4
v 0.2 0 -0.4
v 0.2 0.2 -0.4
v 0.3 0 -0.4
v 0.3 0.2 -0.4
v -1 0 -0.6
v -1 0.1 -0.6
v -0.9 0 -0.6
v -0.9 0.1 -0.6
v -0.8 0 -0.6
v -0.8 0.1 -0.6
v 0.1 0 -0.6
v 0.1 0.1 -0.6
v 0.2 0 -0.6
v 0.2 0.1 -0.6
v 0.3 0 -0.6
v 0.3 0.1 -0.6
v -1 0 -0.5
v -1 0.1 -0.5
v -0.9 0 -0.5
v -0.9 0.1 -0.5
v -0.8 0 -0.5
v -0.8 0.1 -0.5
v 0.1 0 -0.5
v 0.1 0.1 -0.5
v 0.2 0 -0.5
v 0.2 0.1 -0.5
v 0.3 0 -0.5
v 0.3 0.1 -0.5
v -1 0 -0.7
v -1 0.2 -0.7
v -0.9 0 -0.7
v -0.9 0.2 -0.7
v -0.8 0 -0.7
v -0.8 0.1 -0.7
v 0.1 0 -0.7
v 0.1 0.1 -0.7
v 0.2 0 -0.7
v 0.2 0.2 -0.7
v 0.3 0 -0.7
v 0.3 0.2 -0.7
v -1 0 -0.4
v -0.9 0 -0.4
v -0.8 0 -0.4
v 0.1 0 -0.4
v 0.2 0 -0.4
v 0.3 0 -0.4
v -1 0 -0.5
v -0.9 0 -0.5
v -0.8 0 -0.5
v 0.1 0 -0.5
v 0.2 0 -0.5
v 0.3 0 -0.5
v -1 0 -0.6
v -0.9 0 -0.6
v -0.8 0 -0.6
v 0.1 0 -0.6
v 0.2 0 -0.6
v 0.3 0 -0.6
v -1 0 -0.7
v -0.9 0 -0.7
v -0.8 0 -0.7
v 0.1 0 -0.7
v 0.2 0 -0.7
v 0.3 0 -0.7
v -0.8 0.1 -0.4
v 0.1 0.1 -0.4
v -1 0.1 -0.5
v -0.9 0.1 -0.5
v -0.8 0.1 -0.5
v 0.1 0.1 -0.5
v 0.2 0.1 -0.5
v 0.3 0.1 -0.5
v -1 0.1 -0.6
v -0.9 0.1 -0.6
v -0.8 0.1 -0.6
v 0.1 0.1 -0.6
v 0.2 0.1 -0.6
v 0.3 0.1 -0.6
v -0.8 0.1 -0.7
v 0.1 0.1 -0.7
v -1 0.2 -0.4
v -0.9 0.2 -0.4
v 0.2 0.2 -0.4
v 0.3 0.2 -0.4
v -1 0.2 -0.7
v -0.9 0.2 -0.7
v 0.2 0.2 -0.7
v 0.3 0.2 -0.7

# faces
f 5/2/1 2/2/1 1/2/1
f 6/2/1 4/2/1 3/2/1
f 7/2/1 5/2/1 1/2/1
f 7/2/1 6/2/1 5/2/1
f 8/2/1 4/2/1 6/2/1
f 8/2/1 6/2/1 7/2/1
f 13/1/1 10/1/1 9/1/1
f 14/1/1 10/1/1 13/1/1
f 15/1/1 12/1/1 11/1/1
f 16/1/1 12/1/1 15/1/1
f 17/1/2 18/1/2 21/1/2
f 21/1/2 18/1/2 22/1/2
f 19/1/2 20/1/2 23/1/2
f 23/1/2 20/1/2 24/1/2
f 25/2/2 26/2/2 29/2/2
f 27/2/2 28/2/2 30/2/2
f 25/2/2 29/2/2 31/2/2
f 29/2/2 30/2/2 31/2/2
f 30/2/2 28/2/2 32/2/2
f 31/2/2 30/2/2 32/2/2
f 35/2/3 34/2/3 33/2/3
f 36/2/3 34/2/3 35/2/3
f 37/1/3 36/1/3 35/1/3
f 38/1/3 36/1/3 37/1/3
f 40/1/3 36/1/3 38/1/3
f 41/1/3 40/1/3 39/1/3
f 42/1/3 36/1/3 40/1/3
f 42/1/3 40/1/3 41/1/3
f 43/2/3 42/2/3 41/2/3
f 44/2/3 42/2/3 43/2/3
f 47/2/3 46/2/3 45/2/3
f 48/2/3 46/2/3 47/2/3
f 49/1/3 48/1/3 47/1/3
f 50/1/3 48/1/3 49/1/3
f 53/1/3 52/1/3 51/1/3
f 54/1/3 52/1/3 53/1/3
f 55/2/3 54/2/3 53/2/3
f 56/2/3 54/2/3 55/2/3
f 57/2/4 58/2/4 59/2/4
f 59/2/4 58/2/4 60/2/4
f 59/1/4 60/1/4 61/1/4
f 61/1/4 60/1/4 62/1/4
f 63/1/4 64/1/4 65/1/4
f 65/1/4 64/1/4 66/1/4
f 65/2/4 66/2/4 67/2/4
f 67/2/4 66/2/4 68/2/4
f 69/2/4 70/2/4 71/2/4
f 71/2/4 70/2/4 72/2/4
f 71/1/4 72/1/4 73/1/4
f 73/1/4 72/1/4 74/1/4
f 74/1/4 72/1/4 76/1/4
f 75/1/4 76/1/4 77/1/4
f 76/1/4 72/1/4 78/1/4
f 77/1/4 76/1/4 78/1/4
f 77/2/4 78/2/4 79/2/4
f 79/2/4 78/2/4 80/2/4
f 87/2/5 82/2/5 81/2/5
f 88/1/5 83/1/5 82/1/5
f 88/2/5 82/2/5 87/2/5
f 89/1/5 83/1/5 88/1/5
f 90/1/5 85/1/5 84/1/5
f 91/2/5 86/2/5 85/2/5
f 91/1/5 85/1/5 90/1/5
f 92/2/5 86/2/5 91/2/5
f 99/2/5 94/2/5 93/2/5
f 100/1/5 95/1/5 94/1/5
f 100/2/5 94/2/5 99/2/5
f 101/1/5 95/1/5 100/1/5
f 102/1/5 97/1/5 96/1/5
f 103/2/5 98/2/5 97/2/5
f 103/1/5 97/1/5 102/1/5
f 104/2/5 98/2/5 103/2/5
f 109/1/5 106/1/5 105/1/5
f 110/1/5 106/1/5 109/1/5
f 113/2/5 108/2/5 107/2/5
f 114/1/5 109/1/5 108/1/5
f 114/2/5 108/2/5 113/2/5
f 114/1/5 110/1/5 109/1/5
f 114/1/5 111/1/5 110/1/5
f 115/1/5 111/1/5 114/1/5
f 116/1/5 111/1/5 115/1/5
f 117/2/5 112/2/5 111/2/5
f 117/1/5 111/1/5 116/1/5
f 118/2/5 112/2/5 117/2/5
f 119/1/5 116/1/5 115/1/5
f 120/1/5 116/1/5 119/1/5
f 121/2/6 122/2/6 125/2/6
f 122/1/6 123/1/6 126/1/6
f 125/2/6 122/2/6 126/2/6
f 123/2/6 124/2/6 127/2/6
f 126/1/6 123/1/6 127/1/6
f 127/2/6 124/2/6 128/2/6
