# MagicaVoxel @ Ephtracy

# group
o 

# material
mtllib puppleCar.mtl
usemtl palette

# normals
vn -1 0 0
vn 1 0 0
vn 0 0 1
vn 0 0 -1
vn 0 -1 0
vn 0 1 0

# texcoords
vt 0.208984 0.5
vt 0.845703 0.5
vt 0.849609 0.5
vt 0.912109 0.5
vt 0.994141 0.5

# verts
v -0.7 1.1 0.7
v -0.7 1.1 -0.3
v -0.7 1.2 0.7
v -0.7 1.2 -0.3
v -0.7 1.6 0.7
v -0.7 1.6 -0.3
v -0.6 1.6 0.4
v -0.6 1.6 -5.96046e-08
v -0.6 1.7 0.4
v -0.6 1.7 -5.96046e-08
v -0.5 1 0.7
v -0.5 1 0.6
v -0.5 1 -0.2
v -0.5 1 -0.3
v -0.5 1.1 0.7
v -0.5 1.1 0.6
v -0.5 1.1 -0.2
v -0.5 1.1 -0.3
v -0.2 1.5 0.8
v -0.2 1.5 0.7
v -0.2 1.5 -0.3
v -0.2 1.5 -0.4
v -0.2 1.6 0.8
v -0.2 1.6 0.7
v -0.2 1.6 -0.3
v -0.2 1.6 -0.4
v 5.96046e-08 1.6 0.6
v 5.96046e-08 1.6 0.4
v 5.96046e-08 1.6 -5.96046e-08
v 5.96046e-08 1.6 -0.2
v 5.96046e-08 1.7 0.5
v 5.96046e-08 1.7 0.4
v 5.96046e-08 1.7 -5.96046e-08
v 5.96046e-08 1.7 -0.1
v 5.96046e-08 1.9 0.5
v 5.96046e-08 1.9 -0.1
v 5.96046e-08 2 0.6
v 5.96046e-08 2 -0.2
v 0.2 2 0.4
v 0.2 2 -5.96046e-08
v 0.2 2.1 0.4
v 0.2 2.1 -5.96046e-08
v 0.8 1 0.7
v 0.8 1 0.6
v 0.8 1 -0.2
v 0.8 1 -0.3
v 0.8 1.1 0.7
v 0.8 1.1 0.6
v 0.8 1.1 -0.2
v 0.8 1.1 -0.3
v 1.1 1.2 -0.2
v 1.1 1.2 -0.3
v 1.1 1.3 -0.2
v 1.1 1.3 -0.3
v -0.2 1 0.7
v -0.2 1 0.6
v -0.2 1 -0.2
v -0.2 1 -0.3
v -0.2 1.1 0.7
v -0.2 1.1 0.6
v -0.2 1.1 -0.2
v -0.2 1.1 -0.3
v 0.1 1.5 0.8
v 0.1 1.5 0.7
v 0.1 1.5 -0.3
v 0.1 1.5 -0.4
v 0.1 1.6 0.8
v 0.1 1.6 0.7
v 0.1 1.6 -0.3
v 0.1 1.6 -0.4
v 0.5 2 0.4
v 0.5 2 -5.96046e-08
v 0.5 2.1 0.4
v 0.5 2.1 -5.96046e-08
v 0.8 1.2 -0.2
v 0.8 1.2 -0.3
v 0.8 1.3 -0.2
v 0.8 1.3 -0.3
v 1.1 1 0.7
v 1.1 1 0.6
v 1.1 1 -0.2
v 1.1 1 -0.3
v 1.1 1.1 0.7
v 1.1 1.1 0.6
v 1.1 1.1 -0.2
v 1.1 1.1 -0.3
v 1.1 1.6 0.6
v 1.1 1.6 -0.2
v 1.1 2 0.6
v 1.1 2 -0.2
v 1.3 1.1 0.7
v 1.3 1.1 -0.3
v 1.3 1.2 0.7
v 1.3 1.2 -0.3
v 1.3 1.6 0.7
v 1.3 1.6 -0.3
v -0.2 1.5 0.8
v -0.2 1.6 0.8
v 0.1 1.5 0.8
v 0.1 1.6 0.8
v -0.7 1.1 0.7
v -0.7 1.2 0.7
v -0.7 1.6 0.7
v -0.5 1 0.7
v -0.5 1.1 0.7
v -0.5 1.2 0.7
v -0.5 1.3 0.7
v -0.4 1.1 0.7
v -0.4 1.2 0.7
v -0.3 1.1 0.7
v -0.3 1.2 0.7
v -0.2 1 0.7
v -0.2 1.1 0.7
v -0.2 1.2 0.7
v -0.2 1.3 0.7
v -0.2 1.5 0.7
v -0.2 1.6 0.7
v 0.1 1.5 0.7
v 0.1 1.6 0.7
v 0.8 1 0.7
v 0.8 1.1 0.7
v 0.8 1.2 0.7
v 0.8 1.3 0.7
v 0.9 1.1 0.7
v 0.9 1.2 0.7
v 1 1.1 0.7
v 1 1.2 0.7
v 1.1 1 0.7
v 1.1 1.1 0.7
v 1.1 1.2 0.7
v 1.1 1.3 0.7
v 1.3 1.1 0.7
v 1.3 1.2 0.7
v 1.3 1.6 0.7
v 5.96046e-08 1.6 0.6
v 5.96046e-08 2 0.6
v 0.1 1.6 0.6
v 0.1 1.8 0.6
v 0.5 1.6 0.6
v 0.5 1.8 0.6
v 0.7 1.6 0.6
v 0.7 1.8 0.6
v 1 1.6 0.6
v 1 1.8 0.6
v 1.1 1.6 0.6
v 1.1 2 0.6
v -0.6 1.6 0.4
v -0.6 1.7 0.4
v 5.96046e-08 1.6 0.4
v 5.96046e-08 1.7 0.4
v 0.2 2 0.4
v 0.2 2.1 0.4
v 0.4 2 0.4
v 0.4 2.1 0.4
v 0.5 2 0.4
v 0.5 2.1 0.4
v -0.5 1 -0.2
v -0.5 1.1 -0.2
v -0.2 1 -0.2
v -0.2 1.1 -0.2
v 0.8 1 -0.2
v 0.8 1.1 -0.2
v 1.1 1 -0.2
v 1.1 1.1 -0.2
v -0.5 1 0.6
v -0.5 1.1 0.6
v -0.2 1 0.6
v -0.2 1.1 0.6
v 0.8 1 0.6
v 0.8 1.1 0.6
v 1.1 1 0.6
v 1.1 1.1 0.6
v -0.6 1.6 -5.96046e-08
v -0.6 1.7 -5.96046e-08
v 5.96046e-08 1.6 -5.96046e-08
v 5.96046e-08 1.7 -5.96046e-08
v 0.2 2 -5.96046e-08
v 0.2 2.1 -5.96046e-08
v 0.4 2 -5.96046e-08
v 0.4 2.1 -5.96046e-08
v 0.5 2 -5.96046e-08
v 0.5 2.1 -5.96046e-08
v 5.96046e-08 1.6 -0.2
v 5.96046e-08 2 -0.2
v 0.1 1.6 -0.2
v 0.1 1.8 -0.2
v 0.5 1.6 -0.2
v 0.5 1.8 -0.2
v 0.7 1.6 -0.2
v 0.7 1.8 -0.2
v 0.8 1.2 -0.2
v 0.8 1.3 -0.2
v 0.9 1.2 -0.2
v 1 1.2 -0.2
v 1 1.6 -0.2
v 1 1.8 -0.2
v 1.1 1.2 -0.2
v 1.1 1.3 -0.2
v 1.1 1.6 -0.2
v 1.1 2 -0.2
v -0.7 1.1 -0.3
v -0.7 1.2 -0.3
v -0.7 1.6 -0.3
v -0.5 1 -0.3
v -0.5 1.1 -0.3
v -0.5 1.2 -0.3
v -0.5 1.3 -0.3
v -0.4 1.1 -0.3
v -0.4 1.2 -0.3
v -0.3 1.1 -0.3
v -0.3 1.2 -0.3
v -0.2 1 -0.3
v -0.2 1.1 -0.3
v -0.2 1.2 -0.3
v -0.2 1.3 -0.3
v -0.2 1.5 -0.3
v -0.2 1.6 -0.3
v 0.1 1.5 -0.3
v 0.1 1.6 -0.3
v 0.8 1 -0.3
v 0.8 1.1 -0.3
v 0.8 1.2 -0.3
v 0.8 1.3 -0.3
v 0.9 1.1 -0.3
v 0.9 1.2 -0.3
v 1 1.1 -0.3
v 1 1.2 -0.3
v 1.1 1 -0.3
v 1.1 1.1 -0.3
v 1.1 1.2 -0.3
v 1.1 1.3 -0.3
v 1.3 1.1 -0.3
v 1.3 1.2 -0.3
v 1.3 1.6 -0.3
v -0.2 1.5 -0.4
v -0.2 1.6 -0.4
v 0.1 1.5 -0.4
v 0.1 1.6 -0.4
v -0.5 1 0.7
v -0.2 1 0.7
v 0.8 1 0.7
v 1.1 1 0.7
v -0.5 1 0.6
v -0.2 1 0.6
v 0.8 1 0.6
v 1.1 1 0.6
v -0.5 1 -0.2
v -0.2 1 -0.2
v 0.8 1 -0.2
v 1.1 1 -0.2
v -0.5 1 -0.3
v -0.2 1 -0.3
v 0.8 1 -0.3
v 1.1 1 -0.3
v -0.7 1.1 0.7
v -0.5 1.1 0.7
v -0.2 1.1 0.7
v 0.8 1.1 0.7
v 1.1 1.1 0.7
v 1.3 1.1 0.7
v -0.5 1.1 0.6
v -0.2 1.1 0.6
v 0.8 1.1 0.6
v 1.1 1.1 0.6
v -0.5 1.1 -0.2
v -0.2 1.1 -0.2
v 0.8 1.1 -0.2
v 1.1 1.1 -0.2
v -0.7 1.1 -0.3
v -0.5 1.1 -0.3
v -0.2 1.1 -0.3
v 0.8 1.1 -0.3
v 1.1 1.1 -0.3
v 1.3 1.1 -0.3
v 0.8 1.3 -0.2
v 1.1 1.3 -0.2
v 0.8 1.3 -0.3
v 1.1 1.3 -0.3
v -0.2 1.5 0.8
v 0.1 1.5 0.8
v -0.2 1.5 0.7
v 0.1 1.5 0.7
v -0.2 1.5 -0.3
v 0.1 1.5 -0.3
v -0.2 1.5 -0.4
v 0.1 1.5 -0.4
v 0.8 1.2 -0.2
v 0.9 1.2 -0.2
v 1 1.2 -0.2
v 1.1 1.2 -0.2
v 0.8 1.2 -0.3
v 0.9 1.2 -0.3
v 1 1.2 -0.3
v 1.1 1.2 -0.3
v -0.2 1.6 0.8
v 0.1 1.6 0.8
v -0.7 1.6 0.7
v -0.2 1.6 0.7
v 0.1 1.6 0.7
v 1.3 1.6 0.7
v 5.96046e-08 1.6 0.6
v 0.1 1.6 0.6
v 0.5 1.6 0.6
v 0.7 1.6 0.6
v 1 1.6 0.6
v 1.1 1.6 0.6
v -0.6 1.6 0.4
v 5.96046e-08 1.6 0.4
v -0.6 1.6 -5.96046e-08
v 5.96046e-08 1.6 -5.96046e-08
v 5.96046e-08 1.6 -0.2
v 0.1 1.6 -0.2
v 0.5 1.6 -0.2
v 0.7 1.6 -0.2
v 1 1.6 -0.2
v 1.1 1.6 -0.2
v -0.7 1.6 -0.3
v -0.2 1.6 -0.3
v 0.1 1.6 -0.3
v 1.3 1.6 -0.3
v -0.2 1.6 -0.4
v 0.1 1.6 -0.4
v -0.6 1.7 0.4
v 5.96046e-08 1.7 0.4
v -0.6 1.7 -5.96046e-08
v 5.96046e-08 1.7 -5.96046e-08
v 5.96046e-08 2 0.6
v 1.1 2 0.6
v 0.2 2 0.4
v 0.4 2 0.4
v 0.5 2 0.4
v 0.2 2 -5.96046e-08
v 0.4 2 -5.96046e-08
v 0.5 2 -5.96046e-08
v 5.96046e-08 2 -0.2
v 1.1 2 -0.2
v 0.2 2.1 0.4
v 0.4 2.1 0.4
v 0.5 2.1 0.4
v 0.2 2.1 -5.96046e-08
v 0.4 2.1 -5.96046e-08
v 0.5 2.1 -5.96046e-08

# faces
f 3/3/1 2/3/1 1/3/1
f 4/3/1 2/3/1 3/3/1
f 5/2/1 4/2/1 3/2/1
f 6/2/1 4/2/1 5/2/1
f 9/2/1 8/2/1 7/2/1
f 10/2/1 8/2/1 9/2/1
f 15/5/1 12/5/1 11/5/1
f 16/5/1 12/5/1 15/5/1
f 17/5/1 14/5/1 13/5/1
f 18/5/1 14/5/1 17/5/1
f 23/2/1 20/2/1 19/2/1
f 24/2/1 20/2/1 23/2/1
f 25/2/1 22/2/1 21/2/1
f 26/2/1 22/2/1 25/2/1
f 31/2/1 28/2/1 27/2/1
f 32/2/1 28/2/1 31/2/1
f 33/2/1 30/2/1 29/2/1
f 34/2/1 30/2/1 33/2/1
f 35/5/1 32/5/1 31/5/1
f 35/2/1 31/2/1 27/2/1
f 35/5/1 34/5/1 33/5/1
f 35/5/1 33/5/1 32/5/1
f 36/2/1 30/2/1 34/2/1
f 36/5/1 34/5/1 35/5/1
f 37/2/1 35/2/1 27/2/1
f 37/2/1 36/2/1 35/2/1
f 38/2/1 30/2/1 36/2/1
f 38/2/1 36/2/1 37/2/1
f 41/1/1 40/1/1 39/1/1
f 42/1/1 40/1/1 41/1/1
f 47/5/1 44/5/1 43/5/1
f 48/5/1 44/5/1 47/5/1
f 49/5/1 46/5/1 45/5/1
f 50/5/1 46/5/1 49/5/1
f 53/2/1 52/2/1 51/2/1
f 54/2/1 52/2/1 53/2/1
f 55/5/2 56/5/2 59/5/2
f 59/5/2 56/5/2 60/5/2
f 57/5/2 58/5/2 61/5/2
f 61/5/2 58/5/2 62/5/2
f 63/2/2 64/2/2 67/2/2
f 67/2/2 64/2/2 68/2/2
f 65/2/2 66/2/2 69/2/2
f 69/2/2 66/2/2 70/2/2
f 71/2/2 72/2/2 73/2/2
f 73/2/2 72/2/2 74/2/2
f 75/2/2 76/2/2 77/2/2
f 77/2/2 76/2/2 78/2/2
f 79/5/2 80/5/2 83/5/2
f 83/5/2 80/5/2 84/5/2
f 81/5/2 82/5/2 85/5/2
f 85/5/2 82/5/2 86/5/2
f 87/2/2 88/2/2 89/2/2
f 89/2/2 88/2/2 90/2/2
f 91/3/2 92/3/2 93/3/2
f 93/3/2 92/3/2 94/3/2
f 93/2/2 94/2/2 95/2/2
f 95/2/2 94/2/2 96/2/2
f 99/2/3 98/2/3 97/2/3
f 100/2/3 98/2/3 99/2/3
f 105/3/3 102/3/3 101/3/3
f 106/2/3 103/2/3 102/2/3
f 106/3/3 102/3/3 105/3/3
f 107/2/3 103/2/3 106/2/3
f 108/5/3 105/5/3 104/5/3
f 108/5/3 106/5/3 105/5/3
f 108/5/3 107/5/3 106/5/3
f 109/5/3 107/5/3 108/5/3
f 110/5/3 108/5/3 104/5/3
f 110/4/3 109/4/3 108/4/3
f 111/5/3 107/5/3 109/5/3
f 111/4/3 109/4/3 110/4/3
f 112/5/3 110/5/3 104/5/3
f 112/5/3 111/5/3 110/5/3
f 113/5/3 111/5/3 112/5/3
f 114/5/3 107/5/3 111/5/3
f 114/5/3 111/5/3 113/5/3
f 115/2/3 103/2/3 107/2/3
f 115/5/3 107/5/3 114/5/3
f 116/2/3 103/2/3 115/2/3
f 117/2/3 103/2/3 116/2/3
f 118/2/3 115/2/3 114/2/3
f 118/2/3 116/2/3 115/2/3
f 121/3/3 114/3/3 113/3/3
f 122/2/3 119/2/3 118/2/3
f 122/2/3 118/2/3 114/2/3
f 122/3/3 114/3/3 121/3/3
f 123/2/3 119/2/3 122/2/3
f 124/5/3 121/5/3 120/5/3
f 124/5/3 122/5/3 121/5/3
f 124/5/3 123/5/3 122/5/3
f 125/5/3 123/5/3 124/5/3
f 126/5/3 124/5/3 120/5/3
f 126/4/3 125/4/3 124/4/3
f 127/5/3 123/5/3 125/5/3
f 127/4/3 125/4/3 126/4/3
f 128/5/3 126/5/3 120/5/3
f 128/5/3 127/5/3 126/5/3
f 129/5/3 127/5/3 128/5/3
f 130/5/3 123/5/3 127/5/3
f 130/5/3 127/5/3 129/5/3
f 131/2/3 119/2/3 123/2/3
f 131/5/3 123/5/3 130/5/3
f 132/3/3 130/3/3 129/3/3
f 133/2/3 131/2/3 130/2/3
f 133/3/3 130/3/3 132/3/3
f 134/2/3 119/2/3 131/2/3
f 134/2/3 131/2/3 133/2/3
f 137/2/3 136/2/3 135/2/3
f 138/2/3 136/2/3 137/2/3
f 139/5/3 138/5/3 137/5/3
f 140/2/3 136/2/3 138/2/3
f 140/5/3 138/5/3 139/5/3
f 141/2/3 140/2/3 139/2/3
f 142/2/3 136/2/3 140/2/3
f 142/2/3 140/2/3 141/2/3
f 143/5/3 142/5/3 141/5/3
f 144/2/3 136/2/3 142/2/3
f 144/5/3 142/5/3 143/5/3
f 145/2/3 144/2/3 143/2/3
f 146/2/3 136/2/3 144/2/3
f 146/2/3 144/2/3 145/2/3
f 149/2/3 148/2/3 147/2/3
f 150/2/3 148/2/3 149/2/3
f 153/1/3 152/1/3 151/1/3
f 154/1/3 152/1/3 153/1/3
f 155/2/3 154/2/3 153/2/3
f 156/2/3 154/2/3 155/2/3
f 159/5/3 158/5/3 157/5/3
f 160/5/3 158/5/3 159/5/3
f 163/5/3 162/5/3 161/5/3
f 164/5/3 162/5/3 163/5/3
f 165/5/4 166/5/4 167/5/4
f 167/5/4 166/5/4 168/5/4
f 169/5/4 170/5/4 171/5/4
f 171/5/4 170/5/4 172/5/4
f 173/2/4 174/2/4 175/2/4
f 175/2/4 174/2/4 176/2/4
f 177/1/4 178/1/4 179/1/4
f 179/1/4 178/1/4 180/1/4
f 179/2/4 180/2/4 181/2/4
f 181/2/4 180/2/4 182/2/4
f 183/2/4 184/2/4 185/2/4
f 185/2/4 184/2/4 186/2/4
f 185/5/4 186/5/4 187/5/4
f 186/2/4 184/2/4 188/2/4
f 187/5/4 186/5/4 188/5/4
f 187/2/4 188/2/4 189/2/4
f 188/2/4 184/2/4 190/2/4
f 189/2/4 188/2/4 190/2/4
f 191/2/4 192/2/4 193/2/4
f 193/2/4 192/2/4 194/2/4
f 189/5/4 190/5/4 195/5/4
f 190/2/4 184/2/4 196/2/4
f 195/5/4 190/5/4 196/5/4
f 194/2/4 192/2/4 197/2/4
f 197/2/4 192/2/4 198/2/4
f 195/2/4 196/2/4 199/2/4
f 196/2/4 184/2/4 200/2/4
f 199/2/4 196/2/4 200/2/4
f 201/3/4 202/3/4 205/3/4
f 202/2/4 203/2/4 206/2/4
f 205/3/4 202/3/4 206/3/4
f 206/2/4 203/2/4 207/2/4
f 204/5/4 205/5/4 208/5/4
f 205/5/4 206/5/4 208/5/4
f 206/5/4 207/5/4 208/5/4
f 208/5/4 207/5/4 209/5/4
f 204/5/4 208/5/4 210/5/4
f 208/4/4 209/4/4 210/4/4
f 209/5/4 207/5/4 211/5/4
f 210/4/4 209/4/4 211/4/4
f 204/5/4 210/5/4 212/5/4
f 210/5/4 211/5/4 212/5/4
f 212/5/4 211/5/4 213/5/4
f 211/5/4 207/5/4 214/5/4
f 213/5/4 211/5/4 214/5/4
f 207/2/4 203/2/4 215/2/4
f 214/5/4 207/5/4 215/5/4
f 215/2/4 203/2/4 216/2/4
f 216/2/4 203/2/4 217/2/4
f 214/2/4 215/2/4 218/2/4
f 215/2/4 216/2/4 218/2/4
f 213/3/4 214/3/4 221/3/4
f 218/2/4 219/2/4 222/2/4
f 214/2/4 218/2/4 222/2/4
f 221/3/4 214/3/4 222/3/4
f 222/2/4 219/2/4 223/2/4
f 220/5/4 221/5/4 224/5/4
f 221/5/4 222/5/4 224/5/4
f 224/5/4 222/5/4 225/5/4
f 220/5/4 224/5/4 226/5/4
f 224/4/4 225/4/4 226/4/4
f 226/4/4 225/4/4 227/4/4
f 220/5/4 226/5/4 228/5/4
f 226/5/4 227/5/4 228/5/4
f 228/5/4 227/5/4 229/5/4
f 229/5/4 227/5/4 230/5/4
f 223/2/4 219/2/4 231/2/4
f 229/3/4 230/3/4 232/3/4
f 230/2/4 231/2/4 233/2/4
f 232/3/4 230/3/4 233/3/4
f 231/2/4 219/2/4 234/2/4
f 233/2/4 231/2/4 234/2/4
f 235/2/4 236/2/4 237/2/4
f 237/2/4 236/2/4 238/2/4
f 243/5/5 240/5/5 239/5/5
f 244/5/5 240/5/5 243/5/5
f 245/5/5 242/5/5 241/5/5
f 246/5/5 242/5/5 245/5/5
f 251/5/5 248/5/5 247/5/5
f 252/5/5 248/5/5 251/5/5
f 253/5/5 250/5/5 249/5/5
f 254/5/5 250/5/5 253/5/5
f 261/3/5 256/3/5 255/3/5
f 262/3/5 258/3/5 257/3/5
f 263/3/5 258/3/5 262/3/5
f 264/3/5 260/3/5 259/3/5
f 265/3/5 263/3/5 262/3/5
f 265/3/5 264/3/5 263/3/5
f 265/3/5 261/3/5 255/3/5
f 265/3/5 262/3/5 261/3/5
f 266/3/5 264/3/5 265/3/5
f 267/3/5 264/3/5 266/3/5
f 268/3/5 260/3/5 264/3/5
f 268/3/5 264/3/5 267/3/5
f 269/3/5 265/3/5 255/3/5
f 270/3/5 265/3/5 269/3/5
f 271/3/5 267/3/5 266/3/5
f 272/3/5 267/3/5 271/3/5
f 273/3/5 260/3/5 268/3/5
f 274/3/5 260/3/5 273/3/5
f 277/2/5 276/2/5 275/2/5
f 278/2/5 276/2/5 277/2/5
f 281/2/5 280/2/5 279/2/5
f 282/2/5 280/2/5 281/2/5
f 285/2/5 284/2/5 283/2/5
f 286/2/5 284/2/5 285/2/5
f 287/5/6 288/5/6 291/5/6
f 288/4/6 289/4/6 292/4/6
f 291/5/6 288/5/6 292/5/6
f 289/5/6 290/5/6 293/5/6
f 292/4/6 289/4/6 293/4/6
f 293/5/6 290/5/6 294/5/6
f 295/2/6 296/2/6 298/2/6
f 298/2/6 296/2/6 299/2/6
f 297/2/6 298/2/6 301/2/6
f 299/2/6 300/2/6 301/2/6
f 298/2/6 299/2/6 301/2/6
f 301/2/6 300/2/6 302/2/6
f 302/2/6 300/2/6 303/2/6
f 303/2/6 300/2/6 304/2/6
f 304/2/6 300/2/6 305/2/6
f 305/2/6 300/2/6 306/2/6
f 297/2/6 301/2/6 307/2/6
f 307/2/6 301/2/6 308/2/6
f 297/2/6 307/2/6 309/2/6
f 309/2/6 310/2/6 311/2/6
f 306/2/6 300/2/6 316/2/6
f 314/2/6 315/2/6 317/2/6
f 315/2/6 316/2/6 317/2/6
f 309/2/6 311/2/6 317/2/6
f 297/2/6 309/2/6 317/2/6
f 313/2/6 314/2/6 317/2/6
f 312/2/6 313/2/6 317/2/6
f 311/2/6 312/2/6 317/2/6
f 317/2/6 316/2/6 318/2/6
f 318/2/6 316/2/6 319/2/6
f 316/2/6 300/2/6 320/2/6
f 319/2/6 316/2/6 320/2/6
f 318/2/6 319/2/6 321/2/6
f 321/2/6 319/2/6 322/2/6
f 323/2/6 324/2/6 325/2/6
f 325/2/6 324/2/6 326/2/6
f 327/2/6 328/2/6 329/2/6
f 329/2/6 328/2/6 330/2/6
f 330/2/6 328/2/6 331/2/6
f 327/2/6 329/2/6 332/2/6
f 331/2/6 328/2/6 334/2/6
f 332/2/6 333/2/6 335/2/6
f 333/2/6 334/2/6 335/2/6
f 327/2/6 332/2/6 335/2/6
f 334/2/6 328/2/6 336/2/6
f 335/2/6 334/2/6 336/2/6
f 337/1/6 338/1/6 340/1/6
f 338/2/6 339/2/6 341/2/6
f 340/1/6 338/1/6 341/1/6
f 341/2/6 339/2/6 342/2/6
