# MagicaVoxel @ Ephtracy

# group
o 

# material
mtllib shortTree.mtl
usemtl palette

# normals
vn -1 0 0
vn 1 0 0
vn 0 0 1
vn 0 0 -1
vn 0 -1 0
vn 0 1 0

# texcoords
vt 0.677734 0.5
vt 0.763672 0.5
vt 0.794922 0.5

# verts
v -0.4 0.9 -1.5
v -0.4 0.9 -2
v -0.4 1 -1.5
v -0.4 1 -2
v -0.4 1.2 -1.5
v -0.4 1.2 -2
v -0.4 1.3 -1.5
v -0.4 1.3 -2
v -0.3 0.7 -1.6
v -0.3 0.7 -1.9
v -0.3 0.9 -1.6
v -0.3 0.9 -1.9
v 0 0.7 -1.6
v 0 0.7 -1.9
v 0 0.9 -1.6
v 0 0.9 -1.9
v 0.1 0.9 -1.5
v 0.1 0.9 -2
v 0.1 1 -1.5
v 0.1 1 -2
v 0.1 1.2 -1.5
v 0.1 1.2 -2
v 0.1 1.3 -1.5
v 0.1 1.3 -2
v -0.4 0.9 -1.5
v -0.4 1 -1.5
v -0.4 1.2 -1.5
v -0.4 1.3 -1.5
v 0.1 0.9 -1.5
v 0.1 1 -1.5
v 0.1 1.2 -1.5
v 0.1 1.3 -1.5
v -0.3 0.7 -1.6
v -0.3 0.9 -1.6
v 0 0.7 -1.6
v 0 0.9 -1.6
v -0.3 0.7 -1.9
v -0.3 0.9 -1.9
v 0 0.7 -1.9
v 0 0.9 -1.9
v -0.4 0.9 -2
v -0.4 1 -2
v -0.4 1.2 -2
v -0.4 1.3 -2
v 0.1 0.9 -2
v 0.1 1 -2
v 0.1 1.2 -2
v 0.1 1.3 -2
v -0.3 0.7 -1.6
v 0 0.7 -1.6
v -0.3 0.7 -1.9
v 0 0.7 -1.9
v -0.4 0.9 -1.5
v 0.1 0.9 -1.5
v -0.3 0.9 -1.6
v 0 0.9 -1.6
v -0.3 0.9 -1.9
v 0 0.9 -1.9
v -0.4 0.9 -2
v 0.1 0.9 -2
v -0.4 1.3 -1.5
v 0.1 1.3 -1.5
v -0.4 1.3 -2
v 0.1 1.3 -2

# faces
f 3/3/1 2/3/1 1/3/1
f 4/3/1 2/3/1 3/3/1
f 5/2/1 4/2/1 3/2/1
f 6/2/1 4/2/1 5/2/1
f 7/3/1 6/3/1 5/3/1
f 8/3/1 6/3/1 7/3/1
f 11/1/1 10/1/1 9/1/1
f 12/1/1 10/1/1 11/1/1
f 13/1/2 14/1/2 15/1/2
f 15/1/2 14/1/2 16/1/2
f 17/3/2 18/3/2 19/3/2
f 19/3/2 18/3/2 20/3/2
f 19/2/2 20/2/2 21/2/2
f 21/2/2 20/2/2 22/2/2
f 21/3/2 22/3/2 23/3/2
f 23/3/2 22/3/2 24/3/2
f 29/3/3 26/3/3 25/3/3
f 30/2/3 27/2/3 26/2/3
f 30/3/3 26/3/3 29/3/3
f 31/3/3 28/3/3 27/3/3
f 31/2/3 27/2/3 30/2/3
f 32/3/3 28/3/3 31/3/3
f 35/1/3 34/1/3 33/1/3
f 36/1/3 34/1/3 35/1/3
f 37/1/4 38/1/4 39/1/4
f 39/1/4 38/1/4 40/1/4
f 41/3/4 42/3/4 45/3/4
f 42/2/4 43/2/4 46/2/4
f 45/3/4 42/3/4 46/3/4
f 43/3/4 44/3/4 47/3/4
f 46/2/4 43/2/4 47/2/4
f 47/3/4 44/3/4 48/3/4
f 51/1/5 50/1/5 49/1/5
f 52/1/5 50/1/5 51/1/5
f 55/3/5 54/3/5 53/3/5
f 56/3/5 54/3/5 55/3/5
f 57/3/5 55/3/5 53/3/5
f 58/3/5 54/3/5 56/3/5
f 59/3/5 57/3/5 53/3/5
f 59/3/5 58/3/5 57/3/5
f 60/3/5 54/3/5 58/3/5
f 60/3/5 58/3/5 59/3/5
f 61/3/6 62/3/6 63/3/6
f 63/3/6 62/3/6 64/3/6
