# MagicaVoxel @ Ephtracy

# group
o 

# material
mtllib TrainSignal.mtl
usemtl palette

# normals
vn -1 0 0
vn 1 0 0
vn 0 0 1
vn 0 0 -1
vn 0 -1 0
vn 0 1 0

# texcoords
vt 0.376953 0.5
vt 0.958984 0.5
vt 0.994141 0.5

# verts
v -0.4 0.8 0.7
v -0.4 0.8 0.6
v -0.4 0.9 0.8
v -0.4 0.9 0.7
v -0.4 0.9 0.6
v -0.4 0.9 0.5
v -0.4 1.2 0.8
v -0.4 1.2 0.5
v -0.2 0 0.5
v -0.2 0 0.4
v -0.2 0.1 0.5
v -0.2 0.1 0.4
v -0.2 0.2 0.5
v -0.2 0.2 0.4
v -0.2 0.4 0.5
v -0.2 0.4 0.4
v -0.2 0.5 0.5
v -0.2 0.5 0.4
v -0.2 0.7 0.5
v -0.2 0.7 0.4
v -0.2 0.8 0.5
v -0.2 0.8 0.4
v -0.2 0.9 0.5
v -0.2 1 0.5
v -0.2 1 0.4
v -0.2 1.1 0.5
v -0.2 1.1 0.4
v -0.2 1.2 0.5
v -0.2 1.3 0.5
v -0.2 1.3 0.4
v -0.2 1.4 0.5
v -0.2 1.4 0.4
v 0 0.8 0.7
v 0 0.8 0.6
v 0 0.9 0.7
v 0 0.9 0.6
v -0.3 0.8 0.7
v -0.3 0.8 0.6
v -0.3 0.9 0.7
v -0.3 0.9 0.6
v -0.1 0 0.5
v -0.1 0 0.4
v -0.1 0.1 0.5
v -0.1 0.1 0.4
v -0.1 0.2 0.5
v -0.1 0.2 0.4
v -0.1 0.4 0.5
v -0.1 0.4 0.4
v -0.1 0.5 0.5
v -0.1 0.5 0.4
v -0.1 0.7 0.5
v -0.1 0.7 0.4
v -0.1 0.8 0.5
v -0.1 0.8 0.4
v -0.1 0.9 0.5
v -0.1 1 0.5
v -0.1 1 0.4
v -0.1 1.1 0.5
v -0.1 1.1 0.4
v -0.1 1.2 0.5
v -0.1 1.3 0.5
v -0.1 1.3 0.4
v -0.1 1.4 0.5
v -0.1 1.4 0.4
v 0.1 0.8 0.7
v 0.1 0.8 0.6
v 0.1 0.9 0.8
v 0.1 0.9 0.7
v 0.1 0.9 0.6
v 0.1 0.9 0.5
v 0.1 1.2 0.8
v 0.1 1.2 0.5
v -0.4 0.9 0.8
v -0.4 1.2 0.8
v 0.1 0.9 0.8
v 0.1 1.2 0.8
v -0.4 0.8 0.7
v -0.4 0.9 0.7
v -0.3 0.8 0.7
v -0.3 0.9 0.7
v 0 0.8 0.7
v 0 0.9 0.7
v 0.1 0.8 0.7
v 0.1 0.9 0.7
v -0.2 0 0.5
v -0.2 0.1 0.5
v -0.2 0.2 0.5
v -0.2 0.4 0.5
v -0.2 0.5 0.5
v -0.2 0.7 0.5
v -0.2 0.8 0.5
v -0.2 0.9 0.5
v -0.2 1.2 0.5
v -0.2 1.3 0.5
v -0.2 1.4 0.5
v -0.1 0 0.5
v -0.1 0.1 0.5
v -0.1 0.2 0.5
v -0.1 0.4 0.5
v -0.1 0.5 0.5
v -0.1 0.7 0.5
v -0.1 0.8 0.5
v -0.1 0.9 0.5
v -0.1 1.2 0.5
v -0.1 1.3 0.5
v -0.1 1.4 0.5
v -0.4 0.8 0.6
v -0.4 0.9 0.6
v -0.3 0.8 0.6
v -0.3 0.9 0.6
v 0 0.8 0.6
v 0 0.9 0.6
v 0.1 0.8 0.6
v 0.1 0.9 0.6
v -0.4 0.9 0.5
v -0.4 1.2 0.5
v -0.2 0.9 0.5
v -0.2 1 0.5
v -0.2 1.1 0.5
v -0.2 1.2 0.5
v -0.1 0.9 0.5
v -0.1 1 0.5
v -0.1 1.1 0.5
v -0.1 1.2 0.5
v 0.1 0.9 0.5
v 0.1 1.2 0.5
v -0.2 0 0.4
v -0.2 0.1 0.4
v -0.2 0.2 0.4
v -0.2 0.4 0.4
v -0.2 0.5 0.4
v -0.2 0.7 0.4
v -0.2 0.8 0.4
v -0.2 1 0.4
v -0.2 1.1 0.4
v -0.2 1.3 0.4
v -0.2 1.4 0.4
v -0.1 0 0.4
v -0.1 0.1 0.4
v -0.1 0.2 0.4
v -0.1 0.4 0.4
v -0.1 0.5 0.4
v -0.1 0.7 0.4
v -0.1 0.8 0.4
v -0.1 1 0.4
v -0.1 1.1 0.4
v -0.1 1.3 0.4
v -0.1 1.4 0.4
v -0.2 0 0.5
v -0.1 0 0.5
v -0.2 0 0.4
v -0.1 0 0.4
v -0.4 0.8 0.7
v -0.3 0.8 0.7
v 0 0.8 0.7
v 0.1 0.8 0.7
v -0.4 0.8 0.6
v -0.3 0.8 0.6
v 0 0.8 0.6
v 0.1 0.8 0.6
v -0.4 0.9 0.8
v 0.1 0.9 0.8
v -0.4 0.9 0.7
v -0.3 0.9 0.7
v 0 0.9 0.7
v 0.1 0.9 0.7
v -0.4 0.9 0.6
v -0.3 0.9 0.6
v 0 0.9 0.6
v 0.1 0.9 0.6
v -0.4 0.9 0.5
v -0.2 0.9 0.5
v -0.1 0.9 0.5
v 0.1 0.9 0.5
v -0.4 1.2 0.8
v 0.1 1.2 0.8
v -0.4 1.2 0.5
v -0.2 1.2 0.5
v -0.1 1.2 0.5
v 0.1 1.2 0.5
v -0.2 1.4 0.5
v -0.1 1.4 0.5
v -0.2 1.4 0.4
v -0.1 1.4 0.4

# faces
f 4/1/1 2/1/1 1/1/1
f 5/1/1 2/1/1 4/1/1
f 7/3/1 4/3/1 3/3/1
f 7/3/1 6/3/1 5/3/1
f 7/3/1 5/3/1 4/3/1
f 8/3/1 6/3/1 7/3/1
f 11/1/1 10/1/1 9/1/1
f 12/1/1 10/1/1 11/1/1
f 13/2/1 12/2/1 11/2/1
f 14/2/1 12/2/1 13/2/1
f 15/1/1 14/1/1 13/1/1
f 16/1/1 14/1/1 15/1/1
f 17/2/1 16/2/1 15/2/1
f 18/2/1 16/2/1 17/2/1
f 19/1/1 18/1/1 17/1/1
f 20/1/1 18/1/1 19/1/1
f 21/2/1 20/2/1 19/2/1
f 22/2/1 20/2/1 21/2/1
f 23/1/1 22/1/1 21/1/1
f 24/1/1 22/1/1 23/1/1
f 25/1/1 22/1/1 24/1/1
f 26/2/1 25/2/1 24/2/1
f 27/2/1 25/2/1 26/2/1
f 28/1/1 27/1/1 26/1/1
f 29/1/1 27/1/1 28/1/1
f 30/1/1 27/1/1 29/1/1
f 31/2/1 30/2/1 29/2/1
f 32/2/1 30/2/1 31/2/1
f 35/1/1 34/1/1 33/1/1
f 36/1/1 34/1/1 35/1/1
f 37/1/2 38/1/2 39/1/2
f 39/1/2 38/1/2 40/1/2
f 41/1/2 42/1/2 43/1/2
f 43/1/2 42/1/2 44/1/2
f 43/2/2 44/2/2 45/2/2
f 45/2/2 44/2/2 46/2/2
f 45/1/2 46/1/2 47/1/2
f 47/1/2 46/1/2 48/1/2
f 47/2/2 48/2/2 49/2/2
f 49/2/2 48/2/2 50/2/2
f 49/1/2 50/1/2 51/1/2
f 51/1/2 50/1/2 52/1/2
f 51/2/2 52/2/2 53/2/2
f 53/2/2 52/2/2 54/2/2
f 53/1/2 54/1/2 55/1/2
f 55/1/2 54/1/2 56/1/2
f 56/1/2 54/1/2 57/1/2
f 56/2/2 57/2/2 58/2/2
f 58/2/2 57/2/2 59/2/2
f 58/1/2 59/1/2 60/1/2
f 60/1/2 59/1/2 61/1/2
f 61/1/2 59/1/2 62/1/2
f 61/2/2 62/2/2 63/2/2
f 63/2/2 62/2/2 64/2/2
f 65/1/2 66/1/2 68/1/2
f 68/1/2 66/1/2 69/1/2
f 67/3/2 68/3/2 71/3/2
f 69/3/2 70/3/2 71/3/2
f 68/3/2 69/3/2 71/3/2
f 71/3/2 70/3/2 72/3/2
f 75/3/3 74/3/3 73/3/3
f 76/3/3 74/3/3 75/3/3
f 79/1/3 78/1/3 77/1/3
f 80/1/3 78/1/3 79/1/3
f 83/1/3 82/1/3 81/1/3
f 84/1/3 82/1/3 83/1/3
f 96/1/3 86/1/3 85/1/3
f 97/2/3 87/2/3 86/2/3
f 97/1/3 86/1/3 96/1/3
f 98/1/3 88/1/3 87/1/3
f 98/2/3 87/2/3 97/2/3
f 99/2/3 89/2/3 88/2/3
f 99/1/3 88/1/3 98/1/3
f 100/1/3 90/1/3 89/1/3
f 100/2/3 89/2/3 99/2/3
f 101/2/3 91/2/3 90/2/3
f 101/1/3 90/1/3 100/1/3
f 102/1/3 92/1/3 91/1/3
f 102/2/3 91/2/3 101/2/3
f 103/1/3 92/1/3 102/1/3
f 104/1/3 94/1/3 93/1/3
f 105/2/3 95/2/3 94/2/3
f 105/1/3 94/1/3 104/1/3
f 106/2/3 95/2/3 105/2/3
f 107/1/4 108/1/4 109/1/4
f 109/1/4 108/1/4 110/1/4
f 111/1/4 112/1/4 113/1/4
f 113/1/4 112/1/4 114/1/4
f 115/3/4 116/3/4 117/3/4
f 117/3/4 116/3/4 118/3/4
f 118/3/4 116/3/4 119/3/4
f 119/3/4 116/3/4 120/3/4
f 121/3/4 122/3/4 125/3/4
f 123/3/4 124/3/4 125/3/4
f 122/3/4 123/3/4 125/3/4
f 125/3/4 124/3/4 126/3/4
f 127/1/4 128/1/4 138/1/4
f 128/2/4 129/2/4 139/2/4
f 138/1/4 128/1/4 139/1/4
f 129/1/4 130/1/4 140/1/4
f 139/2/4 129/2/4 140/2/4
f 130/2/4 131/2/4 141/2/4
f 140/1/4 130/1/4 141/1/4
f 131/1/4 132/1/4 142/1/4
f 141/2/4 131/2/4 142/2/4
f 132/2/4 133/2/4 143/2/4
f 142/1/4 132/1/4 143/1/4
f 133/1/4 134/1/4 144/1/4
f 143/2/4 133/2/4 144/2/4
f 134/2/4 135/2/4 145/2/4
f 144/1/4 134/1/4 145/1/4
f 135/1/4 136/1/4 146/1/4
f 145/2/4 135/2/4 146/2/4
f 136/2/4 137/2/4 147/2/4
f 146/1/4 136/1/4 147/1/4
f 147/2/4 137/2/4 148/2/4
f 151/1/5 150/1/5 149/1/5
f 152/1/5 150/1/5 151/1/5
f 157/1/5 154/1/5 153/1/5
f 158/1/5 154/1/5 157/1/5
f 159/1/5 156/1/5 155/1/5
f 160/1/5 156/1/5 159/1/5
f 163/3/5 162/3/5 161/3/5
f 164/3/5 162/3/5 163/3/5
f 165/3/5 162/3/5 164/3/5
f 166/3/5 162/3/5 165/3/5
f 168/3/5 165/3/5 164/3/5
f 169/3/5 165/3/5 168/3/5
f 171/3/5 168/3/5 167/3/5
f 171/3/5 170/3/5 169/3/5
f 171/3/5 169/3/5 168/3/5
f 172/3/5 170/3/5 171/3/5
f 173/3/5 170/3/5 172/3/5
f 174/3/5 170/3/5 173/3/5
f 175/3/6 176/3/6 177/3/6
f 177/3/6 176/3/6 178/3/6
f 178/3/6 176/3/6 179/3/6
f 179/3/6 176/3/6 180/3/6
f 181/2/6 182/2/6 183/2/6
f 183/2/6 182/2/6 184/2/6
