# MagicaVoxel @ Ephtracy

# group
o 

# material
mtllib virginghost_FrontDie.mtl
usemtl palette

# normals
vn -1 0 0
vn 1 0 0
vn 0 0 1
vn 0 0 -1
vn 0 -1 0
vn 0 1 0

# texcoords
vt 0.841797 0.5
vt 0.958984 0.5
vt 0.962891 0.5
vt 0.994141 0.5

# verts
v -0.2 1.3 -1.9
v -0.2 1.3 -2
v -0.2 1.4 -1.9
v -0.2 1.4 -2
v -0.2 1.7 -1.9
v -0.2 1.7 -2
v -0.2 1.8 -1.9
v -0.2 1.8 -2
v -0.2 2.4 -1.9
v -0.2 2.4 -2
v -0.0999999 1.2 -1.9
v -0.0999999 1.2 -2
v -0.0999999 1.3 -1.9
v -0.0999999 1.3 -2
v -0.0999999 1.7 -1.9
v -0.0999999 1.7 -2
v -0.0999999 1.8 -1.9
v -0.0999999 1.8 -2
v -0.0999999 2.4 -1.9
v -0.0999999 2.4 -2
v -0.0999999 2.5 -1.9
v -0.0999999 2.5 -2
v 5.96046e-08 2.5 -1.9
v 5.96046e-08 2.5 -2
v 5.96046e-08 2.6 -1.9
v 5.96046e-08 2.6 -2
v 0.1 2.5 -1.9
v 0.1 2.5 -2
v 0.1 2.6 -1.9
v 0.1 2.6 -2
v 0.2 1.2 -1.9
v 0.2 1.2 -2
v 0.2 1.3 -1.9
v 0.2 1.3 -2
v 0.2 1.7 -1.9
v 0.2 1.7 -2
v 0.2 1.8 -1.9
v 0.2 1.8 -2
v 0.2 2.4 -1.9
v 0.2 2.4 -2
v 0.2 2.5 -1.9
v 0.2 2.5 -2
v 0.3 1.3 -1.9
v 0.3 1.3 -2
v 0.3 1.4 -1.9
v 0.3 1.4 -2
v 0.3 1.7 -1.9
v 0.3 1.7 -2
v 0.3 1.8 -1.9
v 0.3 1.8 -2
v 0.3 2.4 -1.9
v 0.3 2.4 -2
v -0.2 1.3 -1.9
v -0.2 1.4 -1.9
v -0.2 1.7 -1.9
v -0.2 1.8 -1.9
v -0.2 2.4 -1.9
v -0.0999999 1.2 -1.9
v -0.0999999 1.3 -1.9
v -0.0999999 1.4 -1.9
v -0.0999999 1.6 -1.9
v -0.0999999 1.7 -1.9
v -0.0999999 1.8 -1.9
v -0.0999999 2.4 -1.9
v -0.0999999 2.5 -1.9
v 5.96046e-08 1.4 -1.9
v 5.96046e-08 1.5 -1.9
v 5.96046e-08 1.6 -1.9
v 5.96046e-08 1.7 -1.9
v 5.96046e-08 2.5 -1.9
v 5.96046e-08 2.6 -1.9
v 0.1 1.2 -1.9
v 0.1 1.4 -1.9
v 0.1 2.5 -1.9
v 0.1 2.6 -1.9
v 0.2 1.2 -1.9
v 0.2 1.3 -1.9
v 0.2 1.4 -1.9
v 0.2 1.5 -1.9
v 0.2 1.7 -1.9
v 0.2 1.8 -1.9
v 0.2 2.4 -1.9
v 0.2 2.5 -1.9
v 0.3 1.3 -1.9
v 0.3 1.4 -1.9
v 0.3 1.7 -1.9
v 0.3 1.8 -1.9
v 0.3 2.4 -1.9
v -0.2 1.3 -2
v -0.2 1.4 -2
v -0.2 1.7 -2
v -0.2 1.8 -2
v -0.2 2.4 -2
v -0.0999999 1.2 -2
v -0.0999999 1.3 -2
v -0.0999999 1.4 -2
v -0.0999999 1.6 -2
v -0.0999999 1.7 -2
v -0.0999999 1.8 -2
v -0.0999999 2.4 -2
v -0.0999999 2.5 -2
v 5.96046e-08 1.4 -2
v 5.96046e-08 1.5 -2
v 5.96046e-08 1.6 -2
v 5.96046e-08 1.7 -2
v 5.96046e-08 2.5 -2
v 5.96046e-08 2.6 -2
v 0.1 1.2 -2
v 0.1 1.4 -2
v 0.1 2.5 -2
v 0.1 2.6 -2
v 0.2 1.2 -2
v 0.2 1.3 -2
v 0.2 1.4 -2
v 0.2 1.5 -2
v 0.2 1.7 -2
v 0.2 1.8 -2
v 0.2 2.4 -2
v 0.2 2.5 -2
v 0.3 1.3 -2
v 0.3 1.4 -2
v 0.3 1.7 -2
v 0.3 1.8 -2
v 0.3 2.4 -2
v -0.0999999 1.2 -1.9
v 0.1 1.2 -1.9
v 0.2 1.2 -1.9
v -0.0999999 1.2 -2
v 0.1 1.2 -2
v 0.2 1.2 -2
v -0.2 1.3 -1.9
v -0.0999999 1.3 -1.9
v 0.2 1.3 -1.9
v 0.3 1.3 -1.9
v -0.2 1.3 -2
v -0.0999999 1.3 -2
v 0.2 1.3 -2
v 0.3 1.3 -2
v -0.2 1.8 -1.9
v -0.0999999 1.8 -1.9
v 0.2 1.8 -1.9
v 0.3 1.8 -1.9
v -0.2 1.8 -2
v -0.0999999 1.8 -2
v 0.2 1.8 -2
v 0.3 1.8 -2
v -0.2 1.7 -1.9
v -0.0999999 1.7 -1.9
v 0.2 1.7 -1.9
v 0.3 1.7 -1.9
v -0.2 1.7 -2
v -0.0999999 1.7 -2
v 0.2 1.7 -2
v 0.3 1.7 -2
v -0.2 2.4 -1.9
v -0.0999999 2.4 -1.9
v 0.2 2.4 -1.9
v 0.3 2.4 -1.9
v -0.2 2.4 -2
v -0.0999999 2.4 -2
v 0.2 2.4 -2
v 0.3 2.4 -2
v -0.0999999 2.5 -1.9
v 5.96046e-08 2.5 -1.9
v 0.1 2.5 -1.9
v 0.2 2.5 -1.9
v -0.0999999 2.5 -2
v 5.96046e-08 2.5 -2
v 0.1 2.5 -2
v 0.2 2.5 -2
v 5.96046e-08 2.6 -1.9
v 0.1 2.6 -1.9
v 5.96046e-08 2.6 -2
v 0.1 2.6 -2

# faces
f 3/2/1 2/2/1 1/2/1
f 4/2/1 2/2/1 3/2/1
f 5/3/1 4/3/1 3/3/1
f 6/3/1 4/3/1 5/3/1
f 9/4/1 8/4/1 7/4/1
f 10/4/1 8/4/1 9/4/1
f 13/3/1 12/3/1 11/3/1
f 14/3/1 12/3/1 13/3/1
f 17/3/1 16/3/1 15/3/1
f 18/3/1 16/3/1 17/3/1
f 21/4/1 20/4/1 19/4/1
f 22/4/1 20/4/1 21/4/1
f 25/4/1 24/4/1 23/4/1
f 26/4/1 24/4/1 25/4/1
f 27/4/2 28/4/2 29/4/2
f 29/4/2 28/4/2 30/4/2
f 31/1/2 32/1/2 33/1/2
f 33/1/2 32/1/2 34/1/2
f 35/3/2 36/3/2 37/3/2
f 37/3/2 36/3/2 38/3/2
f 39/4/2 40/4/2 41/4/2
f 41/4/2 40/4/2 42/4/2
f 43/2/2 44/2/2 45/2/2
f 45/2/2 44/2/2 46/2/2
f 45/3/2 46/3/2 47/3/2
f 47/3/2 46/3/2 48/3/2
f 49/4/2 50/4/2 51/4/2
f 51/4/2 50/4/2 52/4/2
f 59/2/3 54/2/3 53/2/3
f 60/3/3 55/3/3 54/3/3
f 60/2/3 54/2/3 59/2/3
f 61/3/3 55/3/3 60/3/3
f 62/3/3 55/3/3 61/3/3
f 63/4/3 57/4/3 56/4/3
f 64/4/3 57/4/3 63/4/3
f 66/3/3 59/3/3 58/3/3
f 66/3/3 60/3/3 59/3/3
f 66/3/3 61/3/3 60/3/3
f 67/3/3 61/3/3 66/3/3
f 68/1/3 62/1/3 61/1/3
f 68/3/3 61/3/3 67/3/3
f 69/3/3 63/3/3 62/3/3
f 69/1/3 62/1/3 68/1/3
f 70/4/3 65/4/3 64/4/3
f 70/4/3 64/4/3 63/4/3
f 72/3/3 66/3/3 58/3/3
f 73/1/3 67/1/3 66/1/3
f 73/3/3 66/3/3 72/3/3
f 74/4/3 71/4/3 70/4/3
f 74/4/3 70/4/3 63/4/3
f 75/4/3 71/4/3 74/4/3
f 76/1/3 73/1/3 72/1/3
f 77/1/3 73/1/3 76/1/3
f 78/1/3 67/1/3 73/1/3
f 78/1/3 73/1/3 77/1/3
f 79/3/3 69/3/3 68/3/3
f 79/1/3 67/1/3 78/1/3
f 79/3/3 68/3/3 67/3/3
f 80/3/3 63/3/3 69/3/3
f 80/3/3 69/3/3 79/3/3
f 81/4/3 74/4/3 63/4/3
f 81/3/3 63/3/3 80/3/3
f 82/4/3 74/4/3 81/4/3
f 83/4/3 74/4/3 82/4/3
f 84/2/3 78/2/3 77/2/3
f 85/3/3 79/3/3 78/3/3
f 85/2/3 78/2/3 84/2/3
f 85/3/3 80/3/3 79/3/3
f 86/3/3 80/3/3 85/3/3
f 87/4/3 82/4/3 81/4/3
f 88/4/3 82/4/3 87/4/3
f 89/2/4 90/2/4 95/2/4
f 90/3/4 91/3/4 96/3/4
f 95/2/4 90/2/4 96/2/4
f 96/3/4 91/3/4 97/3/4
f 97/3/4 91/3/4 98/3/4
f 92/4/4 93/4/4 99/4/4
f 99/4/4 93/4/4 100/4/4
f 94/3/4 95/3/4 102/3/4
f 95/3/4 96/3/4 102/3/4
f 96/3/4 97/3/4 102/3/4
f 102/3/4 97/3/4 103/3/4
f 97/1/4 98/1/4 104/1/4
f 103/3/4 97/3/4 104/3/4
f 98/3/4 99/3/4 105/3/4
f 104/1/4 98/1/4 105/1/4
f 100/4/4 101/4/4 106/4/4
f 99/4/4 100/4/4 106/4/4
f 94/3/4 102/3/4 108/3/4
f 102/1/4 103/1/4 109/1/4
f 108/3/4 102/3/4 109/3/4
f 106/4/4 107/4/4 110/4/4
f 99/4/4 106/4/4 110/4/4
f 110/4/4 107/4/4 111/4/4
f 108/1/4 109/1/4 112/1/4
f 112/1/4 109/1/4 113/1/4
f 109/1/4 103/1/4 114/1/4
f 113/1/4 109/1/4 114/1/4
f 104/3/4 105/3/4 115/3/4
f 114/1/4 103/1/4 115/1/4
f 103/3/4 104/3/4 115/3/4
f 105/3/4 99/3/4 116/3/4
f 115/3/4 105/3/4 116/3/4
f 99/4/4 110/4/4 117/4/4
f 116/3/4 99/3/4 117/3/4
f 117/4/4 110/4/4 118/4/4
f 118/4/4 110/4/4 119/4/4
f 113/2/4 114/2/4 120/2/4
f 114/3/4 115/3/4 121/3/4
f 120/2/4 114/2/4 121/2/4
f 115/3/4 116/3/4 121/3/4
f 121/3/4 116/3/4 122/3/4
f 117/4/4 118/4/4 123/4/4
f 123/4/4 118/4/4 124/4/4
f 128/3/5 126/3/5 125/3/5
f 129/1/5 127/1/5 126/1/5
f 129/3/5 126/3/5 128/3/5
f 130/1/5 127/1/5 129/1/5
f 135/2/5 132/2/5 131/2/5
f 136/2/5 132/2/5 135/2/5
f 137/2/5 134/2/5 133/2/5
f 138/2/5 134/2/5 137/2/5
f 143/4/5 140/4/5 139/4/5
f 144/4/5 140/4/5 143/4/5
f 145/4/5 142/4/5 141/4/5
f 146/4/5 142/4/5 145/4/5
f 147/3/6 148/3/6 151/3/6
f 151/3/6 148/3/6 152/3/6
f 149/3/6 150/3/6 153/3/6
f 153/3/6 150/3/6 154/3/6
f 155/4/6 156/4/6 159/4/6
f 159/4/6 156/4/6 160/4/6
f 157/4/6 158/4/6 161/4/6
f 161/4/6 158/4/6 162/4/6
f 163/4/6 164/4/6 167/4/6
f 167/4/6 164/4/6 168/4/6
f 165/4/6 166/4/6 169/4/6
f 169/4/6 166/4/6 170/4/6
f 171/4/6 172/4/6 173/4/6
f 173/4/6 172/4/6 174/4/6
